<svg width="16" height="16" viewBox="0 0 16 16" fill="none" xmlns="http://www.w3.org/2000/svg">
<path fill-rule="evenodd" clip-rule="evenodd" d="M10.6825 6.25495C10.1185 6.91837 10.0875 7.8834 10.6075 8.58177C10.8076 8.85043 11.1969 8.8854 11.4417 8.6567L14.9351 5.39289L11.6445 8.91643C11.3908 9.18815 11.3677 9.6025 11.5898 9.90068C11.8575 10.2601 12.1823 10.6059 12.622 10.6928C13.0977 10.7868 13.6018 10.6941 14.0212 10.4145L14.9521 9.79399L14.3315 10.7248C13.913 11.3526 13.9131 12.1705 14.3316 12.7983L14.9521 13.7291L14.0213 13.1085C13.3935 12.69 12.5756 12.69 11.9479 13.1085L11.0171 13.729L11.6376 12.7982C11.9276 12.3631 12.0166 11.8368 11.9045 11.3457C11.8128 10.9436 11.4977 10.6451 11.167 10.3988C10.8729 10.1798 10.4602 10.2216 10.2161 10.4952L8.91401 11.954C8.34716 12.589 8.28106 13.527 8.75325 14.2352L9.26306 15L8.33226 14.3795C7.70448 13.9609 6.88665 13.9609 6.25887 14.3795L5.32806 15L5.85806 14.205C6.32077 13.5109 6.26749 12.5942 5.72748 11.9584L5.65068 11.8679C5.41782 11.5937 5.00671 11.5603 4.73263 11.7933L1.2231 14.777L4.20603 11.268C4.43892 10.994 4.40565 10.5831 4.13171 10.3502L4.04172 10.2737C3.40592 9.73302 2.4887 9.67943 1.79427 10.1424L1 10.6719L1.62054 9.74111C2.03905 9.11333 2.03904 8.29549 1.62053 7.66771L1 6.7369L1.7668 7.2481C2.4741 7.71964 3.41054 7.65444 4.04569 7.08946L5.49986 5.79587C5.77632 5.54994 5.81852 5.13332 5.597 4.83695C5.34283 4.4969 5.03317 4.17323 4.61743 4.08722C4.13694 3.98782 3.62593 4.0795 3.20172 4.3623L2.27092 4.98284L2.89145 4.05203C3.30996 3.42425 3.30998 2.6064 2.89146 1.97863L2.27092 1.04782L3.20172 1.66836C3.8295 2.08687 4.64734 2.08687 5.27512 1.66836L6.20592 1.04782L5.58538 1.97863C5.31332 2.38671 5.21817 2.87511 5.29984 3.3394C5.37978 3.79382 5.73515 4.13096 6.1047 4.40721C6.40531 4.63192 6.82378 4.60871 7.09768 4.35214L10.6071 1.06481L7.34345 4.54707C7.11238 4.79363 7.14698 5.18632 7.4176 5.38867C8.11605 5.91075 9.08275 5.8804 9.74713 5.31561L16 0L10.6825 6.25495ZM9.80477 9.38451C9.10639 8.86444 8.14138 8.89551 7.47796 9.4595L6.05507 10.6691C5.85345 10.8405 5.85349 11.1518 6.05515 11.3231C6.76616 11.927 7.81367 11.9141 8.50963 11.2929L9.83689 10.1082C10.0576 9.91119 10.0421 9.56122 9.80477 9.38451ZM4.70375 7.48981C4.08425 8.18623 4.0726 9.2327 4.67642 9.94277C4.84846 10.145 5.16072 10.1449 5.33269 9.94266L6.53869 8.52406C7.10349 7.85968 7.13377 6.89304 6.61169 6.19459C6.43347 5.95615 6.08136 5.94114 5.88351 6.16357L4.70375 7.48981Z" fill="#EC295A"/>
</svg>
