<svg width="440" height="663" viewBox="0 0 440 663" fill="none" xmlns="http://www.w3.org/2000/svg">
<path fill-rule="evenodd" clip-rule="evenodd" d="M283.888 183.393C267.353 202.844 266.441 231.138 281.689 251.614C287.556 259.491 298.969 260.516 306.146 253.811L408.574 158.117L312.094 261.426C304.654 269.393 303.978 281.541 310.489 290.284C318.338 300.822 327.863 310.96 340.753 313.508C354.7 316.266 369.482 313.547 381.779 305.35L409.07 287.156L390.876 314.446C378.605 332.853 378.607 356.833 390.878 375.24L409.072 402.531L381.781 384.337C363.375 372.066 339.394 372.064 320.988 384.335L293.697 402.529L311.891 375.238C320.395 362.481 323.003 347.05 319.718 332.652C317.029 320.863 307.791 312.11 298.092 304.888C289.47 298.468 277.371 299.694 270.212 307.715L232.036 350.485C215.417 369.105 213.479 396.605 227.323 417.371L242.27 439.794L214.98 421.6C196.573 409.329 172.595 409.329 154.188 421.6L126.897 439.794L142.437 416.484C156.003 396.134 154.441 369.256 138.608 350.615L136.356 347.963C129.529 339.923 117.476 338.943 109.44 345.775L6.54134 433.254L93.9999 330.372C100.828 322.339 99.8526 310.292 91.8206 303.463L89.1824 301.22C70.541 285.368 43.6481 283.797 23.2877 297.37L0 312.896L18.1939 285.605C30.4645 267.199 30.4644 243.22 18.1939 224.814L8.58239e-06 197.523L22.4824 212.511C43.2203 226.336 70.6764 224.425 89.2988 207.86L131.935 169.932C140.04 162.722 141.278 150.507 134.783 141.817C127.33 131.847 118.251 122.357 106.062 119.836C91.974 116.921 76.9915 119.609 64.5538 127.901L37.263 146.095L55.4569 118.804C67.7272 100.397 67.7278 76.4185 55.4569 58.0125L37.263 30.7216L64.5538 48.9155C82.96 61.1862 106.939 61.1861 125.345 48.9155L152.636 30.7216L134.442 58.0125C126.465 69.9774 123.675 84.2969 126.07 97.9098C128.414 111.233 138.833 121.118 149.668 129.218C158.482 135.806 170.751 135.126 178.782 127.603L281.676 31.2197L185.988 133.318C179.213 140.547 180.227 152.061 188.162 157.994C208.64 173.301 236.984 172.411 256.463 155.851L439.795 0L283.888 183.393ZM258.153 275.15C237.677 259.901 209.383 260.812 189.932 277.348L148.213 312.814C142.302 317.839 142.303 326.965 148.216 331.988C169.062 349.695 199.775 349.317 220.18 331.104L259.095 296.369C265.567 290.592 265.112 280.331 258.153 275.15ZM108.593 219.598C90.4292 240.017 90.0878 270.699 107.792 291.518C112.836 297.447 121.991 297.445 127.033 291.514L162.393 249.922C178.952 230.442 179.84 202.101 164.533 181.623C159.308 174.632 148.984 174.192 143.183 180.713L108.593 219.598Z" fill="#EC295A"/>
<path d="M58.988 508.994H80.9733L80.9496 509.128H87.7773C82.3576 512.759 84.325 520.963 86.8746 530.511L87.0529 531.049L87.2966 531.99L100.543 579.999C101.851 584.975 103.437 589.144 105.166 592.506L115.813 532.124C118.208 518.542 118.901 513.835 113.064 508.994H130.406C122.861 513.835 121.758 518.542 119.363 532.124L107.934 596.944C109.692 599.364 111.658 601.381 113.807 603.13H106.843L106.819 603.264H91.6617L91.6854 603.13H84.8577C89.4997 600.037 88.8627 593.582 86.937 585.916L72.0916 532.259C70.7841 527.283 69.1978 523.114 67.4692 519.752L56.8223 580.134C54.4273 593.716 53.734 598.423 59.5715 603.264H42.3656C49.7739 598.423 50.8769 593.716 53.2719 580.134L64.725 515.18C62.9432 512.894 61.114 510.877 58.988 508.994Z" fill="#EC295A"/>
<path d="M171.892 514.104C153.174 518.811 139.768 541.404 141.947 564.669C144.263 587.934 161.158 602.861 180.013 598.154C198.732 593.447 212.161 570.72 209.958 547.59C207.642 524.325 190.634 509.263 171.892 514.104ZM128.307 556.062C132.883 530.107 157.909 508.994 184.264 508.994C210.755 508.994 228.335 530.107 223.758 556.062C219.158 582.151 194.157 603.13 167.665 603.13C141.31 603.13 123.707 582.151 128.307 556.062Z" fill="#EC295A"/>
<path d="M250.592 603.264L250.615 603.13H249.933L238.681 533.738C235.91 516.928 235.256 512.894 227.886 508.994H256.836C249.956 513.163 250.682 519.887 252.817 533.335L252.835 534.007L252.99 534.68L260.572 582.285L284.807 534.68L285.062 534.007C292.147 520.156 295.084 513.566 289.609 508.994H308.044C299.804 512.356 297.478 516.256 290.298 530.645L289.075 532.931L288.796 533.738L266.983 576.906C259.619 591.564 257.858 599.23 264.111 603.264H250.592Z" fill="#EC295A"/>
<path d="M329.064 529.166L312.062 561.307H335.14L329.064 529.166ZM335.898 508.994L339.697 509.128L352.564 578.654L352.719 579.327C355.721 595.599 356.696 599.364 364.065 603.264H334.979C342.156 598.961 340.931 591.968 338.232 577.848L335.752 564.803H310.217L303.274 577.848L303.042 578.385C295.708 592.102 292.498 598.692 297.973 603.264H279.675C288.051 599.902 290.448 595.599 298.661 579.999L299.077 579.192L299.468 578.52L308.512 561.307L322.261 535.217C329.714 520.828 330.882 513.432 325.656 508.994H335.898Z" fill="#EC295A"/>
<path d="M135.789 629.533L128.302 643.688H138.465L135.789 629.533ZM138.799 620.65L140.472 620.709L146.139 651.328L146.207 651.624C147.529 658.79 147.958 660.448 151.204 662.165H138.394C141.555 660.27 141.016 657.191 139.827 650.972L138.735 645.228H127.489L124.432 650.972L124.33 651.209C121.1 657.25 119.686 660.152 122.097 662.165H114.039C117.728 660.685 118.784 658.79 122.4 651.92L122.583 651.565L122.756 651.268L126.739 643.688L132.794 632.199C136.076 625.862 136.59 622.604 134.289 620.65H138.799Z" fill="#EC295A"/>
<path d="M184.9 624.973C183.735 628.171 183.547 630.6 183.376 633.62C180.662 616.267 165.18 621.538 164.656 630.303C164.123 639.128 182.227 640.134 180.431 650.321C178.363 662.047 160.234 665.956 153.596 657.901C154.761 654.703 154.949 652.275 155.121 649.255C157.774 666.607 173.306 661.396 173.829 652.631C174.405 643.569 156.269 642.74 158.065 632.554C160.133 620.828 178.252 616.978 184.9 624.973Z" fill="#EC295A"/>
<path d="M214.675 624.973C213.51 628.171 213.322 630.6 213.15 633.62C210.437 616.267 194.954 621.538 194.431 630.303C193.898 639.128 212.002 640.134 210.206 650.321C208.138 662.047 190.009 665.956 183.371 657.901C184.536 654.703 184.724 652.275 184.895 649.255C187.549 666.607 203.081 661.396 203.604 652.631C204.18 643.569 186.044 642.74 187.84 632.554C189.908 620.828 208.026 616.978 214.675 624.973Z" fill="#EC295A"/>
<path d="M218.571 620.709H245.693C245.196 622.841 245.082 626.217 245.211 629.237C243.929 623.552 241.031 622.249 232.612 622.249H230.567C227.621 622.249 226.801 626.217 225.715 632.376L224.796 637.588H226.66C233.215 637.588 238.917 636.285 241.603 630.599L238.857 646.175C238.186 640.431 232.943 639.128 226.388 639.128H224.524L222.53 650.439C221.444 656.599 220.854 660.626 223.8 660.626H225.845C234.264 660.626 237.621 659.323 240.919 653.578C239.725 656.599 238.649 659.974 238.383 662.165H211.261C214.524 660.033 215.009 657.961 216.064 651.979L219.792 630.836C220.847 624.855 221.082 622.841 218.571 620.709Z" fill="#EC295A"/>
<path d="M259.708 662.106L254.446 629.533C254.185 628.29 253.902 627.165 253.588 626.217L249.045 651.979C247.991 657.961 247.696 659.974 250.256 662.165H242.679C245.952 659.974 246.427 657.961 247.482 651.979L252.505 623.493C251.772 622.19 250.977 621.242 249.989 620.709H252.996L253.006 620.65H259.26L259.25 620.709H262.257C259.891 622.19 260.114 626.039 260.921 631.014L260.939 631.251L264.394 652.927L279.509 623.137C279.255 622.19 278.659 621.479 277.712 620.709H280.779L280.789 620.65H282.233L282.222 620.709H289.98C286.717 622.841 286.242 624.855 285.187 630.836L281.459 651.979C280.404 657.961 280.17 659.974 282.67 662.165H270.402C273.735 659.974 274.21 657.961 275.265 651.979L278.993 630.836C279.369 628.704 279.601 627.046 279.711 625.743L267.196 650.676C263.974 657.013 263.258 660.389 265.962 662.106H259.708Z" fill="#EC295A"/>
<path d="M298.868 638.832L300.052 638.595C299.671 638.713 299.239 638.772 298.868 638.832ZM296.709 650.735C295.654 656.717 295.156 660.566 298.042 660.566H299.606C311.754 660.566 318.211 637.588 303.041 639.72L300.082 640.134L298.536 640.371L296.709 650.735ZM305.847 622.782C305.447 622.664 304.987 622.545 304.517 622.486C302.004 622.071 301.439 623.907 300.531 629.06L298.808 638.832H298.868L300.052 638.595C310.871 636.581 313.946 625.625 306.017 622.841L305.847 622.782ZM292.802 620.709H300.921L301.052 620.65L301.161 620.709H304.95C319.624 620.709 319.985 631.962 309.462 637.41C323.992 637.884 318.989 662.165 302.271 662.165H285.493C288.766 659.974 289.241 657.961 290.296 651.979L294.024 630.836C295.078 624.855 295.313 622.841 292.802 620.709Z" fill="#EC295A"/>
<path d="M325.04 620.709H337.307C334.055 622.782 333.52 624.796 332.507 630.54L328.946 650.735C327.891 656.717 327.383 660.626 330.269 660.626H330.51C338.869 660.626 342.286 659.323 345.524 653.578C344.554 656.006 343.724 658.671 343.238 660.744L342.998 662.106H317.74C321.003 659.974 321.478 657.961 322.533 651.979L326.261 630.836C327.315 624.855 327.55 622.841 325.04 620.709Z" fill="#EC295A"/>
<path d="M352.599 631.369C349.653 624.203 348.913 622.604 345.228 620.65H359.36C356.485 621.953 357.265 625.032 358.672 628.645L363.214 639.72L370.316 630.481C373.685 626.039 376.55 622.071 373.783 620.709H382.743C378.864 622.249 377.329 623.789 374.052 628.053L371.704 631.133L371.32 631.606L363.895 641.319L363.267 642.148L361.534 651.979C360.479 657.961 360.244 659.974 362.815 662.106H350.547C353.81 659.974 354.285 657.961 355.34 651.979L357.073 642.148L352.599 631.369Z" fill="#EC295A"/>
</svg>
