<svg width="63" height="42" viewBox="0 0 63 42" fill="none" xmlns="http://www.w3.org/2000/svg">
<g clip-path="url(#clip0_10413_14491)">
<path fill-rule="evenodd" clip-rule="evenodd" d="M24.2739 15.3098C24.0838 15.2393 23.8812 15.2085 23.6787 15.2191C23.4762 15.2297 23.278 15.2817 23.0963 15.3717H23.0914C22.731 15.5295 22.4458 15.8208 22.2956 16.1845C22.2764 16.3389 22.2839 16.4955 22.3177 16.6474C22.3746 17.042 22.531 17.7773 22.7052 18.4706C22.8989 19.1862 22.9741 19.9287 22.9278 20.6686C22.9374 20.7917 22.9374 20.9153 22.9278 21.0384C22.9253 21.1196 22.9453 21.1999 22.9856 21.2704C23.0258 21.3409 23.0849 21.3989 23.1561 21.438C23.4659 21.6095 23.8171 21.692 24.1709 21.6763C24.5247 21.6606 24.8672 21.5474 25.1606 21.3491C25.425 21.1967 25.6237 20.9521 25.7188 20.6622C25.7328 20.6219 25.7502 20.5829 25.7707 20.5456C26.0614 19.9196 26.1961 19.2325 26.1633 18.5432L26.169 18.3753C26.2115 17.5385 25.9912 16.7093 25.5389 16.0038C25.2097 15.6339 24.7629 15.3887 24.2739 15.3098ZM40.4982 27.4851C40.3264 27.4832 40.1593 27.541 40.0254 27.6487C39.8916 27.7564 39.7993 27.9072 39.7644 28.0754C39.7295 28.2436 39.7541 28.4187 39.834 28.5708C39.9139 28.7229 40.0442 28.8424 40.2026 28.909C40.3609 28.9756 40.5375 28.9852 40.7021 28.936C40.8667 28.8868 41.009 28.7819 41.1049 28.6393C41.2007 28.4968 41.244 28.3253 41.2274 28.1543C41.2107 27.9834 41.1352 27.8235 41.0137 27.702C40.9474 27.6323 40.8673 27.577 40.7786 27.5397C40.6899 27.5024 40.5944 27.4838 40.4982 27.4851ZM19.0943 19.6439C18.659 19.4805 18.1795 19.479 17.7432 19.6397L17.5918 19.6731C17.3122 19.6967 17.0486 19.8135 16.8432 20.0047C16.6379 20.1959 16.5026 20.4504 16.459 20.7276V20.7355C16.464 20.7497 16.469 20.7639 16.4732 20.7788C16.4938 20.8931 16.4991 21.0095 16.4889 21.1251C16.483 21.1979 16.4847 21.271 16.4938 21.3434C16.6473 21.4866 16.8324 21.5914 17.0341 21.6493C17.2358 21.7073 17.4483 21.7168 17.6544 21.6769C18.0478 21.6338 18.4282 21.5099 18.7715 21.3129L18.9485 21.229C18.9485 21.2162 18.9542 21.2034 18.9578 21.192L19.0097 21.0185C19.0552 20.867 19.1043 20.7035 19.1519 20.5314C19.1566 20.4949 19.1647 20.459 19.1761 20.424C19.2156 20.2965 19.2395 20.1647 19.2472 20.0315C19.2534 19.9592 19.2426 19.8865 19.2155 19.8191C19.1885 19.7518 19.146 19.6918 19.0915 19.6439H19.0943ZM46.4493 19.1348C46.3554 19.1412 46.2552 19.1348 46.1492 19.1455C44.9205 19.2286 44.0117 19.4192 43.5729 20.077C43.2928 20.4965 42.8505 21.2695 43.0325 21.7352C43.0759 21.8301 43.1426 21.9125 43.2264 21.9746C43.3102 22.0368 43.4084 22.0768 43.5118 22.0908C44.0328 22.1907 44.5644 22.2243 45.094 22.1911H45.1345C45.9194 22.2343 46.6959 22.0119 47.3389 21.5596C47.6603 21.3932 47.7968 19.9419 47.6027 19.6233C47.4861 19.4305 47.3113 19.2796 47.1036 19.1922C46.8959 19.1048 46.6659 19.0855 46.4465 19.1369L46.4493 19.1348ZM31.3741 27.4851C31.2028 27.4833 31.0361 27.5412 30.9026 27.6487C30.7691 27.7562 30.6771 27.9067 30.6423 28.0746C30.6075 28.2424 30.6321 28.4171 30.7119 28.5688C30.7917 28.7205 30.9217 28.8398 31.0797 28.9063C31.2377 28.9728 31.4139 28.9823 31.5781 28.9332C31.7423 28.8842 31.8844 28.7796 31.9801 28.6374C32.0757 28.4952 32.119 28.3241 32.1026 28.1535C32.0861 27.9829 32.0108 27.8233 31.8897 27.702C31.8231 27.632 31.7427 27.5766 31.6536 27.5393C31.5645 27.5019 31.4686 27.4835 31.372 27.4851H31.3741ZM62.2277 16.0366C61.6787 12.7692 60.6084 9.61135 59.0577 6.68357C57.004 2.52511 54.9476 -0.262379 53.0049 0.0362794C49.7089 0.543288 46.8895 4.09377 45.2739 6.96232C45.1293 7.22032 44.9165 7.43348 44.6587 7.57837C44.4009 7.72327 44.1081 7.79429 43.8126 7.78363C42.1955 7.72461 39.3007 7.53687 36.2899 7.49918C33.5821 7.46221 30.7946 7.68621 28.7524 7.79714C26.5707 7.91589 19.7442 8.40369 17.446 7.63856C16.3082 7.26026 14.9764 4.99473 13.3992 2.88919C12.1 1.15483 10.7098 0.0554846 8.52108 0.0554846C6.90121 0.0554846 5.0218 1.8133 3.63801 4.5958C2.64763 6.82191 1.84234 9.12581 1.23026 11.4841C0.224236 14.7513 -0.155029 18.1793 0.112434 21.5873C0.436692 24.3471 0.859073 26.949 2.48676 29.2024C2.84633 29.7077 3.25873 30.1733 3.71696 30.5912C4.29953 31.1146 4.76229 31.7576 5.07363 32.4763C5.38497 33.1949 5.53755 33.9723 5.52099 34.7553C5.51601 34.9495 5.51318 35.1614 5.51318 35.3953C5.51318 37.9553 5.86445 37.9553 5.86445 40.5152C5.84321 40.6782 5.8607 40.844 5.91551 40.999C5.97032 41.154 6.06089 41.2939 6.17989 41.4074C6.29889 41.5208 6.44296 41.6046 6.60041 41.652C6.75786 41.6994 6.92427 41.7089 7.08612 41.68C7.96289 41.6992 8.63345 41.2725 8.63345 40.5152C8.63345 37.9553 8.32269 37.9553 8.32269 35.3953C8.32269 34.7966 8.31844 34.3372 8.31204 33.9532C8.31052 33.8521 8.33259 33.7521 8.37653 33.661C8.42047 33.5699 8.48507 33.4904 8.56516 33.4287C8.64524 33.3669 8.73861 33.3247 8.83787 33.3054C8.93712 33.2862 9.03951 33.2903 9.13688 33.3175L9.15609 33.3225C9.35412 33.3772 9.52999 33.4926 9.65885 33.6526C9.78772 33.8126 9.86308 34.0091 9.8743 34.2142C9.91483 34.9601 9.94541 35.8348 9.94541 37.2442C9.92559 37.5039 10.0084 37.7611 10.176 37.9605C10.3437 38.1599 10.5828 38.2857 10.8421 38.3108C10.9882 38.3349 11.138 38.324 11.2792 38.2792C11.4203 38.2344 11.5489 38.1568 11.6544 38.0528C11.7598 37.9488 11.8392 37.8213 11.886 37.6808C11.9328 37.5402 11.9457 37.3906 11.9237 37.2442C11.9237 36.5708 11.9102 36.0197 11.8888 35.5461C11.8787 35.3275 11.9151 35.1093 11.9958 34.9059C12.0764 34.7025 12.1994 34.5187 12.3566 34.3665C12.5138 34.2143 12.7015 34.0972 12.9074 34.0232C13.1132 33.9491 13.3325 33.9197 13.5506 33.9369C14.5952 34.0179 15.7358 34.1033 16.9831 34.2497C19.2707 34.5185 21.9472 35.1614 24.9957 35.2943C27.3984 35.3996 30.0729 35.0291 33.0118 35.0291C36.2757 35.0291 39.1357 35.0426 41.6708 34.8869C45.1551 34.6736 48.0869 35.0647 50.388 34.6657C53.2873 34.2437 56.0513 33.1632 58.4682 31.5071C59.6514 30.6541 60.6427 29.5627 61.3783 28.3031C62.1139 27.0436 62.5774 25.6439 62.739 24.1942C62.9978 21.4359 62.579 18.775 62.2291 16.033L62.2277 16.0366ZM14.4957 22.9725C14.2569 23.2423 13.9669 23.4621 13.6426 23.6191C13.3183 23.776 12.9661 23.8671 12.6063 23.887C12.0231 23.9676 11.4351 24.0089 10.8464 24.0107C9.76259 24.0425 8.68511 23.8352 7.69053 23.4035C7.53074 23.2852 7.40919 23.1227 7.34093 22.936C7.27267 22.7493 7.26073 22.5466 7.30655 22.3532C7.31884 22.2248 7.37623 22.1049 7.46853 22.0148C7.56083 21.9247 7.68205 21.8703 7.81071 21.8611C8.25514 21.8384 8.69957 21.8526 9.12907 21.8668C9.73861 21.902 10.35 21.888 10.9573 21.8248C11.211 21.7834 11.4616 21.725 11.7075 21.6499C12.0314 21.5484 12.3651 21.4812 12.703 21.4494C12.9974 21.4373 13.0863 21.3257 13.0678 21.2425C12.9978 21.1324 12.9104 21.0344 12.809 20.9523C12.2438 20.5442 11.5821 20.2903 10.889 20.2156C10.6508 20.1673 10.4254 20.1211 10.217 20.0649C9.61048 19.9021 9.01173 19.6838 8.43219 19.4726C8.0674 19.3389 7.68912 19.2016 7.3158 19.08C7.19199 19.0374 7.08121 18.9636 6.99406 18.8659C6.90691 18.7682 6.84629 18.6497 6.81802 18.5218C6.76097 18.2898 6.75521 18.0482 6.80114 17.8137C6.84707 17.5793 6.94359 17.3577 7.08397 17.1644C8.07991 16.019 9.31365 15.1046 10.6992 14.485C11.3328 14.2531 12.0042 14.1414 12.6788 14.1557C13.0077 14.145 13.3368 14.166 13.6616 14.2183C13.9781 14.2849 14.2815 14.4031 14.5597 14.5682C14.7573 14.6807 14.9643 14.7759 15.1783 14.8526C15.3233 14.9466 15.4337 15.0852 15.4928 15.2475C15.552 15.4098 15.5566 15.5869 15.5061 15.7521C15.5008 15.8626 15.4523 15.9665 15.371 16.0416C15.2897 16.1166 15.1822 16.1567 15.0717 16.1532C14.8401 16.1452 14.6087 16.174 14.3862 16.2385C14.2341 16.277 14.0797 16.3057 13.924 16.3246C13.6833 16.3423 13.4418 16.3452 13.2008 16.3331C13.0436 16.3288 12.8865 16.3238 12.7315 16.3281C12.1483 16.3061 11.5669 16.4064 11.0248 16.6225C10.4904 16.8767 9.98036 17.1793 9.50098 17.5263C9.47883 17.5425 9.46186 17.5648 9.45211 17.5905C9.44236 17.6162 9.44024 17.6441 9.44603 17.671C9.45182 17.6978 9.46526 17.7224 9.48473 17.7418C9.50419 17.7612 9.52886 17.7745 9.55573 17.7802C9.88141 17.8434 10.2149 17.8911 10.5413 17.9373C11.244 18.0092 11.936 18.1624 12.6035 18.3938C13.207 18.6348 13.7336 19.0355 14.1267 19.553C14.5198 20.0705 14.7646 20.6853 14.8349 21.3314C14.8909 21.6132 14.8896 21.9035 14.8309 22.1849C14.7723 22.4663 14.6576 22.733 14.4936 22.969L14.4957 22.9725ZM17.9573 29.393C17.8748 29.4797 17.7755 29.5487 17.6655 29.5956C17.5554 29.6426 17.4369 29.6665 17.3173 29.6661C17.112 29.6684 16.9126 29.5976 16.7548 29.4662C16.6905 29.4125 16.6338 29.3503 16.5863 29.2814C16.5556 29.2365 16.5362 29.1848 16.5299 29.1308C16.5236 29.0768 16.5305 29.0221 16.55 28.9713C16.5703 28.9163 16.6035 28.8671 16.6468 28.8276C16.6901 28.7881 16.7423 28.7596 16.7989 28.7445C16.8713 28.725 16.9479 28.7287 17.0181 28.7548C17.0883 28.7809 17.1487 28.8283 17.1907 28.8902C17.2048 28.9102 17.224 28.926 17.2462 28.936C17.2685 28.946 17.293 28.9498 17.3173 28.9471C17.3624 28.9468 17.4056 28.9287 17.4375 28.8967C17.4532 28.8834 17.4659 28.8668 17.4746 28.8482C17.4833 28.8295 17.4879 28.8092 17.488 28.7886C17.4752 28.7397 17.4491 28.6954 17.4126 28.6606C17.376 28.6258 17.3304 28.6019 17.281 28.5916C17.1317 28.5247 17.0158 28.4714 16.9305 28.4302C16.867 28.4027 16.8065 28.3689 16.7499 28.3292C16.6461 28.2513 16.563 28.149 16.508 28.0315C16.4529 27.914 16.4276 27.7847 16.4341 27.6551C16.4348 27.5347 16.4597 27.4157 16.5074 27.3052C16.5552 27.1947 16.6247 27.095 16.7119 27.012C16.799 26.929 16.902 26.8645 17.0148 26.8222C17.1275 26.78 17.2475 26.761 17.3678 26.7662C17.549 26.7729 17.7233 26.8372 17.8656 26.9497C17.936 27.0063 17.9978 27.0729 18.049 27.1474C18.0803 27.1931 18.0999 27.2457 18.1062 27.3007C18.1125 27.3558 18.1053 27.4115 18.0853 27.4631C18.0648 27.5179 18.0314 27.567 17.9879 27.6062C17.9445 27.6454 17.8923 27.6737 17.8357 27.6885C17.7649 27.7089 17.6895 27.7068 17.6199 27.6824C17.5504 27.6581 17.4901 27.6128 17.4474 27.5527C17.4356 27.5317 17.418 27.5145 17.3967 27.5032C17.3754 27.4918 17.3513 27.4868 17.3272 27.4887C17.3053 27.4888 17.2836 27.4935 17.2635 27.5024C17.2434 27.5114 17.2254 27.5244 17.2106 27.5406C17.1944 27.5549 17.1813 27.5725 17.1724 27.5923C17.1634 27.612 17.1588 27.6334 17.1587 27.6551C17.1739 27.7029 17.201 27.746 17.2374 27.7805C17.2739 27.815 17.3185 27.8396 17.3671 27.8521C17.5093 27.9146 17.628 27.968 17.7126 28.0106C17.7754 28.04 17.8358 28.0742 17.8933 28.113C17.9968 28.1914 18.0797 28.2938 18.1348 28.4114C18.1899 28.5289 18.2156 28.6581 18.2097 28.7879C18.2089 28.8999 18.186 29.0108 18.1423 29.114C18.0986 29.2172 18.035 29.3108 17.9551 29.3894L17.9573 29.393ZM19.9753 22.7955C19.8886 22.827 19.7955 22.8366 19.7042 22.8234C19.6129 22.8103 19.5263 22.7748 19.452 22.7201C19.3621 22.6625 19.2823 22.5904 19.2159 22.5068C19.2067 22.494 19.1931 22.4851 19.1777 22.4818C19.1624 22.4785 19.1463 22.4811 19.1327 22.489C18.4121 22.8633 17.6137 23.0635 16.8018 23.0735C16.648 23.0745 16.4945 23.0638 16.3424 23.0415C16.1265 23.0176 15.9211 22.936 15.7476 22.8052C15.5742 22.6745 15.4392 22.4994 15.3568 22.2984C15.3234 22.2235 15.2967 22.1456 15.2772 22.0659C15.1651 21.9292 15.0885 21.7671 15.0539 21.5937C14.9816 21.2824 14.9832 20.9585 15.0589 20.648C15.1559 20.1066 15.4098 19.6055 15.789 19.2071C16.1683 18.8086 16.6561 18.5303 17.1921 18.4066C17.5324 18.2501 17.9056 18.1786 18.2796 18.1984C18.6536 18.2182 19.0172 18.3287 19.3389 18.5204C19.3828 18.5551 19.4246 18.5924 19.4641 18.632C19.4449 17.9729 19.2508 17.0136 18.7381 16.6979C18.4401 16.5423 18.1026 16.479 17.7685 16.5159C17.4344 16.5529 17.1189 16.6885 16.8622 16.9055C16.6832 17.0358 16.5601 17.2288 16.5173 17.4459C16.472 17.7215 16.3672 17.9838 16.2101 18.2146C16.089 18.3508 15.9212 18.4368 15.7399 18.4556C15.5586 18.4744 15.3768 18.4247 15.2302 18.3163C15.1128 18.2678 15.012 18.1862 14.9402 18.0814C14.8684 17.9766 14.8285 17.8531 14.8256 17.7261C14.8761 17.4997 14.9497 17.279 15.0454 17.0676C15.359 16.188 15.4955 15.7877 16.5202 15.4087C17.0209 15.2012 17.5663 15.125 18.1047 15.1872C18.6432 15.2494 19.1568 15.448 19.5971 15.7642C21.2845 17.1864 20.9979 20.1246 20.3679 22.3319C20.3431 22.4343 20.2944 22.5293 20.2258 22.6093C20.1572 22.6893 20.0707 22.7519 19.9732 22.7919L19.9753 22.7955ZM22.3596 27.2121C22.3594 27.2966 22.3257 27.3777 22.2659 27.4374C22.206 27.4971 22.1249 27.5307 22.0404 27.5306C22.0271 27.5305 22.014 27.5329 22.0017 27.5378C21.9894 27.5427 21.9783 27.55 21.9688 27.5593C21.9594 27.5685 21.9518 27.5795 21.9466 27.5917C21.9415 27.6039 21.9388 27.617 21.9387 27.6302V29.3048C21.9387 29.3467 21.9304 29.3883 21.9144 29.427C21.8983 29.4657 21.8748 29.5009 21.8452 29.5306C21.8155 29.5602 21.7803 29.5838 21.7416 29.5998C21.7028 29.6158 21.6613 29.6241 21.6194 29.6241H21.5334C21.4487 29.6239 21.3676 29.5902 21.3078 29.5304C21.248 29.4705 21.2143 29.3894 21.2141 29.3048V27.6302C21.2141 27.6039 21.2037 27.5787 21.1852 27.5601C21.1667 27.5414 21.1415 27.5308 21.1152 27.5306C21.0307 27.5307 20.9496 27.4971 20.8897 27.4374C20.8299 27.3777 20.7962 27.2966 20.796 27.2121V27.1225C20.7962 27.0379 20.8299 26.9569 20.8897 26.8972C20.9496 26.8374 21.0307 26.8039 21.1152 26.8039C21.1415 26.8037 21.1667 26.7931 21.1852 26.7745C21.2037 26.7558 21.2141 26.7306 21.2141 26.7044V25.8446C21.2143 25.76 21.248 25.6789 21.3078 25.6191C21.3676 25.5593 21.4487 25.5256 21.5334 25.5254H21.6194C21.704 25.5256 21.7851 25.5593 21.845 25.6191C21.9048 25.6789 21.9385 25.76 21.9387 25.8446V26.7044C21.9387 26.7306 21.9491 26.7558 21.9676 26.7745C21.9861 26.7931 22.0112 26.8037 22.0375 26.8039C22.0796 26.8036 22.1213 26.8116 22.1603 26.8275C22.1993 26.8434 22.2348 26.8668 22.2647 26.8964C22.2946 26.926 22.3184 26.9612 22.3347 27C22.351 27.0388 22.3595 27.0804 22.3596 27.1225V27.2085V27.2121ZM27.3323 28.4273C27.3324 28.59 27.2989 28.751 27.2341 28.9003C27.1693 29.0495 27.0744 29.1838 26.9554 29.2949C26.8432 29.4122 26.7084 29.5056 26.5591 29.5694C26.4098 29.6332 26.2492 29.6661 26.0868 29.6661C25.9245 29.6661 25.7638 29.6332 25.6145 29.5694C25.4652 29.5056 25.3304 29.4122 25.2182 29.2949C25.0998 29.1835 25.0055 29.0491 24.941 28.8999C24.8766 28.7507 24.8434 28.5899 24.8435 28.4273V27.1687C24.8476 27.0754 24.8876 26.9873 24.9551 26.9227C25.0226 26.8581 25.1124 26.8221 25.2058 26.8221C25.2992 26.8221 25.389 26.8581 25.4565 26.9227C25.524 26.9873 25.564 27.0754 25.5681 27.1687V28.4273C25.5731 28.562 25.6301 28.6894 25.7271 28.7829C25.8241 28.8764 25.9535 28.9286 26.0882 28.9286C26.223 28.9286 26.3525 28.8764 26.4495 28.7829C26.5465 28.6894 26.6034 28.562 26.6084 28.4273V27.1687C26.6084 27.0727 26.6465 26.9806 26.7144 26.9128C26.7823 26.8449 26.8744 26.8068 26.9704 26.8068C27.0664 26.8068 27.1584 26.8449 27.2263 26.9128C27.2942 26.9806 27.3323 27.0727 27.3323 27.1687V28.4273ZM26.7777 21.8007C26.2207 22.3278 25.5252 22.6855 24.7724 22.8318C24.5839 22.8872 24.3934 22.9434 24.2035 23.0067C23.9809 23.0778 23.7868 23.1667 23.6161 23.2421C23.3599 23.3797 23.0777 23.4623 22.7877 23.4845C22.3634 23.4938 21.9393 23.4595 21.522 23.3821C21.3591 23.2135 21.2361 23.0104 21.1623 22.7879C21.0884 22.5653 21.0656 22.3291 21.0953 22.0965C21.1454 21.8699 21.178 21.6398 21.1927 21.4082C21.2072 20.9246 21.2913 20.4456 21.4423 19.986C21.4844 19.6002 21.4958 19.2116 21.4765 18.824C21.3675 18.2095 21.1955 17.6078 20.9631 17.0285C20.6341 16.282 20.562 15.4475 20.7583 14.6556C20.8625 14.4722 21.0143 14.3204 21.1977 14.2162C21.2918 14.1094 21.4231 14.0426 21.5648 14.0293C21.7064 14.0161 21.8478 14.0575 21.96 14.1451C21.9993 14.1593 22.0371 14.1772 22.0731 14.1984C22.7121 13.8091 23.4634 13.6458 24.2064 13.7348C25.2114 13.8436 26.1445 14.3078 26.8374 15.0439C26.8949 15.1281 26.9617 15.2056 27.0365 15.275C27.2047 15.4703 27.3349 15.6953 27.4205 15.9384C27.6773 16.4349 27.898 16.9491 28.0811 17.4772C28.5561 18.8674 28.1024 20.36 26.7755 21.7971L26.7777 21.8007ZM32.8305 28.2183C32.8327 28.4091 32.796 28.5984 32.7227 28.7746C32.6493 28.9507 32.5408 29.1101 32.4038 29.243C32.2698 29.3787 32.1098 29.4862 31.9334 29.5589C31.757 29.6316 31.5678 29.668 31.377 29.6661C31.1742 29.6656 30.9737 29.6231 30.7881 29.5412C30.6026 29.4593 30.436 29.3398 30.299 29.1903C30.0667 28.942 29.9334 28.6172 29.9242 28.2773C29.9172 28.0792 29.9496 27.8816 30.0197 27.6962C30.0898 27.5107 30.1961 27.3411 30.3324 27.1971C30.5576 26.9595 30.8598 26.8093 31.1852 26.7733C31.5107 26.7372 31.8383 26.8176 32.1101 27.0002V25.8909C32.1143 25.7976 32.1542 25.7094 32.2217 25.6449C32.2892 25.5803 32.379 25.5443 32.4724 25.5443C32.5658 25.5443 32.6556 25.5803 32.7231 25.6449C32.7906 25.7094 32.8306 25.7976 32.8347 25.8909V28.2183H32.8305ZM36.3511 29.2636C36.347 29.3565 36.3071 29.4443 36.2399 29.5086C36.1727 29.5729 36.0832 29.6088 35.9902 29.6088C35.8972 29.6088 35.8077 29.5729 35.7405 29.5086C35.6733 29.4443 35.6335 29.3565 35.6293 29.2636V27.1673C35.6335 27.0743 35.6733 26.9866 35.7405 26.9223C35.8077 26.858 35.8972 26.8221 35.9902 26.8221C36.0832 26.8221 36.1727 26.858 36.2399 26.9223C36.3071 26.9866 36.347 27.0743 36.3511 27.1673V29.2636ZM35.9898 26.2478C35.9183 26.248 35.8484 26.2269 35.7889 26.1873C35.7294 26.1476 35.683 26.0912 35.6555 26.0252C35.6281 25.9591 35.6209 25.8864 35.6348 25.8163C35.6487 25.7462 35.6831 25.6817 35.7337 25.6312C35.7843 25.5806 35.8487 25.5462 35.9188 25.5323C35.989 25.5184 36.0617 25.5256 36.1277 25.553C36.1937 25.5804 36.2502 25.6268 36.2898 25.6864C36.3294 25.7459 36.3505 25.8158 36.3504 25.8873C36.35 25.9828 36.3119 26.0743 36.2444 26.1418C36.1768 26.2094 36.0853 26.2475 35.9898 26.2478ZM41.5271 29.2401C41.2909 29.4739 40.9809 29.6187 40.65 29.6498C40.319 29.681 39.9875 29.5965 39.7118 29.4109C39.4361 29.2252 39.2332 28.9498 39.1375 28.6315C39.0419 28.3132 39.0594 27.9715 39.1872 27.6647C39.315 27.3578 39.5451 27.1047 39.8384 26.9483C40.1317 26.7919 40.4701 26.7419 40.7961 26.8068C41.1221 26.8717 41.4156 27.0475 41.6266 27.3043C41.8377 27.5611 41.9533 27.883 41.9538 28.2154C41.955 28.4061 41.9178 28.5951 41.8442 28.7711C41.7706 28.947 41.6623 29.1063 41.5257 29.2394L41.5271 29.2401ZM46.4216 28.8654C46.4107 29.0326 46.3473 29.1922 46.2402 29.3212C46.1566 29.4285 46.0494 29.5151 45.927 29.5744C45.8046 29.6337 45.6701 29.6641 45.5341 29.6632C45.329 29.6656 45.1299 29.5948 44.9724 29.4634C44.9079 29.4099 44.8511 29.3477 44.8038 29.2785C44.773 29.2337 44.7535 29.1821 44.7471 29.1281C44.7407 29.074 44.7474 29.0193 44.7669 28.9685C44.7872 28.9135 44.8204 28.8642 44.8637 28.8247C44.907 28.7853 44.9591 28.7568 45.0157 28.7416C45.0881 28.722 45.1648 28.7255 45.235 28.7516C45.3053 28.7778 45.3656 28.8252 45.4076 28.8874C45.4217 28.9072 45.4409 28.9229 45.4632 28.9329C45.4854 28.9429 45.5099 28.9468 45.5341 28.9443C45.5795 28.9439 45.6229 28.9258 45.655 28.8938C45.6706 28.8805 45.6832 28.8639 45.6917 28.8452C45.7003 28.8266 45.7048 28.8063 45.7048 28.7857C45.6922 28.7368 45.6662 28.6924 45.6296 28.6576C45.593 28.6227 45.5473 28.5989 45.4979 28.5887C45.3492 28.5219 45.2333 28.4686 45.148 28.4273C45.0845 28.3996 45.0238 28.3657 44.9667 28.3264C44.863 28.2484 44.78 28.1461 44.7251 28.0286C44.6702 27.911 44.6449 27.7818 44.6517 27.6522C44.6523 27.5319 44.6772 27.413 44.7249 27.3026C44.7726 27.1921 44.842 27.0924 44.9291 27.0094C45.0162 26.9265 45.1192 26.8619 45.2318 26.8196C45.3444 26.7773 45.4644 26.7582 45.5846 26.7634C45.7658 26.7701 45.9402 26.8343 46.0824 26.9468C46.1529 27.0036 46.2149 27.0702 46.2666 27.1445C46.2978 27.1902 46.3174 27.2429 46.3238 27.2979C46.3301 27.3529 46.3229 27.4086 46.3028 27.4602C46.2823 27.5152 46.2488 27.5643 46.2052 27.6036C46.1617 27.6428 46.1093 27.671 46.0525 27.6857C45.9818 27.7065 45.9064 27.7047 45.8368 27.6803C45.7673 27.6559 45.7072 27.6103 45.665 27.5498C45.6531 27.5289 45.6354 27.5118 45.6141 27.5004C45.5929 27.4891 45.5688 27.484 45.5448 27.4858C45.5227 27.486 45.5009 27.4907 45.4807 27.4996C45.4605 27.5085 45.4424 27.5215 45.4275 27.5378C45.4114 27.5522 45.3986 27.5699 45.3898 27.5896C45.3809 27.6093 45.3764 27.6306 45.3763 27.6522C45.3914 27.7 45.4184 27.7431 45.4547 27.7775C45.491 27.812 45.5354 27.8366 45.5839 27.8492C45.7304 27.9118 45.8456 27.9651 45.9302 28.0078C45.9929 28.0369 46.0531 28.0711 46.1101 28.1102C46.2231 28.1979 46.3112 28.3138 46.3656 28.4461C46.42 28.5785 46.4388 28.7228 46.4201 28.8647L46.4216 28.8654ZM58.0444 16.2079C58.0364 16.3805 57.9679 16.5448 57.8508 16.6718C57.7338 16.7989 57.5757 16.8806 57.4044 16.9027C56.3377 16.9816 55.4084 16.9652 54.4256 16.9482C54.1148 16.9412 53.8115 17.0445 53.5696 17.2397C53.3276 17.435 53.1626 17.7095 53.1037 18.0148C52.8638 19.2181 52.7277 20.4397 52.697 21.6663C52.6721 22.3852 52.4033 23.1596 51.7256 23.1766C51.0479 23.1937 50.7429 22.4328 50.6817 21.7153C50.502 20.2798 50.5551 18.8247 50.8389 17.4061C50.8527 17.3503 50.8541 17.2922 50.843 17.2358C50.8319 17.1795 50.8087 17.1262 50.7749 17.0797C50.744 17.0364 50.7039 17.0006 50.6573 16.9749C50.6108 16.9492 50.5591 16.9342 50.5061 16.9311C50.1215 16.9053 49.7417 16.8315 49.3754 16.7114C49.3605 16.7062 49.3445 16.7051 49.329 16.7084C49.3136 16.7116 49.2993 16.719 49.2877 16.7298C49.2762 16.7405 49.2678 16.7542 49.2634 16.7694C49.2591 16.7846 49.259 16.8007 49.2631 16.8159C49.6023 18.1064 49.6408 19.4576 49.3754 20.7653C49.4281 21.5838 49.352 23.0017 48.2647 23.3999C48.135 23.4513 47.993 23.4632 47.8566 23.434C47.1305 23.9583 46.2561 24.2373 45.3606 24.2305C45.2476 24.2305 45.1338 24.2305 45.02 24.2305C43.6519 24.2305 42.3221 24.0342 41.7127 22.6092C41.4776 22.1763 41.3489 21.6937 41.3373 21.2012C41.3376 21.1846 41.3328 21.1682 41.3235 21.1544C41.3142 21.1406 41.3009 21.13 41.2853 21.124C41.2698 21.118 41.2528 21.117 41.2366 21.121C41.2205 21.125 41.206 21.1339 41.195 21.1465C40.1149 22.435 38.5448 22.9434 37.0181 23.4369L36.9761 23.4504C35.8384 23.8195 34.2527 24.1444 33.1839 23.5926C32.9325 23.4614 32.7105 23.2802 32.5318 23.0601C32.353 22.84 32.2211 22.5856 32.1443 22.3127C31.8122 21.2492 31.8224 20.1083 32.1734 19.0509C32.457 18.3538 32.8353 17.6991 33.2977 17.1053C33.5017 16.8173 33.7129 16.5194 33.8964 16.2207C34.3898 15.2395 35.1274 14.4018 36.0382 13.7881C36.8764 13.3176 37.8257 13.0813 38.7866 13.104C38.9999 13.1118 39.4578 13.1659 39.5098 13.1751C39.828 13.2568 40.1041 13.4548 40.2835 13.7301C40.463 14.0053 40.5327 14.3379 40.479 14.662C40.4914 14.9827 40.3786 15.2955 40.1643 15.5344C39.9501 15.7733 39.6514 15.9195 39.3313 15.942C37.71 15.9782 36.6803 16.193 35.5518 17.2646C34.6729 18.0994 32.8433 19.8381 33.388 21.3619C33.4239 21.4768 33.4862 21.5816 33.5699 21.668C33.6537 21.7545 33.7565 21.8201 33.8701 21.8597C34.7639 22.1832 36.4706 21.305 37.4085 20.7525C37.6659 20.5993 37.9074 20.4209 38.1295 20.2199C38.3813 19.9906 38.6605 19.7933 38.9608 19.6325C39.2946 19.4254 39.5924 19.1653 39.8425 18.8624C40.092 18.5623 40.3875 18.3036 40.7179 18.0959C40.9104 18.0034 41.1265 17.9717 41.3375 18.005C41.5485 18.0383 41.7443 18.1349 41.899 18.2822C42.0671 18.4182 42.1908 18.6011 42.2546 18.8077C42.3257 18.6925 42.4053 18.5823 42.4843 18.4784C42.902 17.924 43.4773 17.5084 44.135 17.2861C44.7927 17.0639 45.5021 17.0452 46.1706 17.2326C46.8649 17.3348 47.5263 17.5959 48.1033 17.9956C48.009 16.9566 47.5351 15.9887 46.7721 15.2771C45.9899 14.6371 45.2867 14.8377 44.3935 15.0958L44.2513 15.1377C43.8483 15.2279 43.4645 15.389 43.1178 15.6135C43.0297 15.6753 42.95 15.7429 42.8661 15.814C42.8 15.8695 42.7346 15.9256 42.6649 15.9783C42.6435 15.9939 42.6073 16.0287 42.5696 16.0643C42.5207 16.1177 42.4641 16.1634 42.4018 16.2001C42.3397 16.3043 42.2443 16.3844 42.1309 16.4274C42.0175 16.4704 41.8929 16.4737 41.7774 16.4369C41.5775 16.3383 41.4106 16.1837 41.297 15.9919C41.1834 15.8001 41.1279 15.5795 41.1374 15.3568C41.287 14.6473 41.6625 14.0055 42.2076 13.5276C42.7527 13.0496 43.4381 12.7613 44.161 12.7058C45.505 12.5892 47.0111 12.6539 48.0009 14.0185C48.2014 14.2976 48.3816 14.5909 48.5399 14.896C49.421 14.224 50.8559 14.3058 52.0164 14.3712C52.3009 14.3875 52.5718 14.4025 52.8164 14.406C53.0397 14.406 53.2672 14.4103 53.4976 14.411C54.871 14.3216 56.2486 14.5048 57.5509 14.95C57.7501 15.0848 57.9038 15.2769 57.9916 15.5008C58.0795 15.7248 58.0973 15.9701 58.0429 16.2044L58.0444 16.2079Z" fill="white"/>
</g>
<defs>
<clipPath id="clip0_10413_14491">
<rect width="62.821" height="41.665" fill="white"/>
</clipPath>
</defs>
</svg>
