<?xml version="1.0" encoding="UTF-8"?>
<svg id="Layer_1" xmlns="http://www.w3.org/2000/svg" version="1.1" viewBox="0 0 600.51 859.62">
  <!-- Generator: Adobe Illustrator 29.8.3, SVG Export Plug-In . SVG Version: 2.1.1 Build 3)  -->
  <defs>
    <style>
      .st0 {
        fill: #fff;
      }
    </style>
  </defs>
  <path class="st0" d="M237.28,48.62c0-15.85,28.38-40.72,52.22-48.3.47-.15,1.64-.32,2.07-.32.96,0,1.21.33,1.21,1s-.48,1.81-.63,2.21c-6.22,16.75-14.64,47.35-14.64,69.58s2.12,36.32,8.06,53.13c.06.17.23.62.23.94,0,.45-.33.93-1.11.93-.23,0-.66-.18-.85-.33-35.45-27.86-46.56-60.09-46.56-78.84ZM103.27,572.25h108.52c15.24-33.65,49.11-57.07,88.46-57.07s73.22,23.41,88.46,57.07h96.3c8.78-6.36,19.36-23.13,27.23-38.42,8.78-17.05,18.38-42.14,18.66-57.3,0-.25-.29-.4-.49-.25-2.98,2.35-8.64,3.36-12.21,3.36-18.68,0-29.09-16.8-29.09-35.52,0-27.64,12.99-35.93,25.77-37.26.17-.02.3-.18.27-.35-10.37-74.59-70.63-92.67-70.63-134.02,0-20.67,10.38-34,15.27-39.5.19-.21.44-.51.44-.89,0-.62-.69-.71-1.29-.68-26.94,1.53-73.28,27.86-73.28,62.7,0,15.2,11.18,25.86,17.37,35.21.16.25.54.13.54-.16.18-7.36,2.44-14.03,8.06-14.03,8.41,0,20.48,13,20.48,37.6,0,30.93-21.48,60.26-40.12,60.26-22.02,0-21.95-34.03-30.49-59.71-3.5-10.54-6.03-26.5-38.01-41.14-18.88-8.64-47.2-24.66-47.2-52.75,0-39.67,29.86-81.08,42.62-81.08,3.34,0,5.88,2.55,7.48,6.6.21.52.76.74,1.25.48,12.9-6.9,42.51-21.78,42.88-51.83.47-38.2-46.19-58.49-58.93-64.1-.16-.07-.42-.1-.57-.1-.49,0-.86.48-.86.87,0,.26.1.53.3.78,5.19,6.74,13.99,18.24,13.99,35.1,0,50.24-71.39,83.27-102.31,102.16-13.71,8.37-19.15,21.96-23.99,52.81-2.24,14.28-3.24,32.39-3.24,44.26,0,5.77-.16,9.41.39,16.07,1.23,6.15,8.93,17.74,14.24,25.29.22.31.49.79.97.79.46,0,.51-.55.51-1.23,0-.75-.52-4.47-.52-11.19,0-8.22,3.32-13.86,10.76-13.86,15.86,0,55.16,30.98,55.16,65.14,0,21.74-12.65,32.47-22.89,32.47-8.72,0-11.94-2.56-13.02-2.56-.74,0-.97.36-.97,1.1,0,7.97,4.14,14,4.14,24.44,0,17.22-16.58,50.46-56.94,50.46-31.92,0-57.49-30.98-57.49-63.68,0-22.06,14.56-44.94,24.39-44.94,4.14,0,6.1,1.66,8.41,5.35.13.21.44.2.54-.03,2.75-6.28,4.42-13.94,4.42-21.87,0-25.36-15.21-37.45-34.19-46.9-10.86-5.4-20.33-8.42-27.95-12.02-.46-.22-1.17-.66-1.82-.66-1.06,0-1.17.73-1.17,1.23,0,.61.56,2.52,2.08,4.63,2.23,3.11,4.88,6.34,7.02,9.55,5.58,8.35,15.73,26.75,15.73,39.83,0,25.92-24.54,58.91-43.47,89.4-.28.46-.15,1.04.29,1.35,6.55,4.72,13.1,15.64,13.1,28.2,0,6.49-4.21,22.34-18.21,22.34-7.77,0-12.07-3.8-14.84-6.21-.22-.19-.57-.39-.82-.39-.51,0-.8.54-.83,1.08-.13,2.07-.25,4.73-.25,6.7,0,31.35,28.34,56.52,41.58,67.03ZM103.27,676.91c.88.57,1.6,1.37,2.08,2.3,3.44,6.57,6.1,15.5,6.91,17.38,1.64,3.81,3.72,6.48,5.04,6.48.37,0,1.2-.35,2.12-1.47,2.92-3.56,5.4-6.76,8.26-7.7.57-.19,1.19-.09,1.69.25,26.34,17.64,55.3,38.05,87.55,64.19.57.46,1.01,1.07,1.27,1.76,6,16.03,10.03,31.24,10.42,33.14,1.8,8.76,2.04,10.39,3.36,10.39.92,0,1.64-1.09,3-3.09,1.61-2.36,3.56-5.23,4.14-6.52.88-1.93,4.32-4.34,6.6-9.8.25-.61,1.04-.8,1.53-.36,13.12,11.44,26.76,23.87,40.93,37.42h24.11c.24-.16.42-.28.65-.45.16-.61.85-.55.99-.1,2.71,8.31,4.54,16.25,8.13,23.89,2.15,4.59,1.43,6.54,4.45,14.55.19.51.71.62.87.13,2.95-9.16,8.57-30,12.27-43.65,1.46-5.39,6.3-17.86,9.5-28.19,36.67-32.28,69.38-56.96,98.94-77.58.26-.18.62-.07.74.23,2.08,5.18,4.33,9.96,5.47,13.12,1.51,4.14,3.93,11.24,6.04,13.88,1.96,2.46,3.16,4.18,5.09,4.18.61,0,1.12-1.74,1.98-4.37,2.05-6.22,4.29-14.7,5.52-19.13,3.14-11.29,8.33-21.58,10.85-31.12.19-.72.63-1.35,1.26-1.76,2.62-1.72,5.2-3.42,7.77-5.1.42-.27.98-.2,1.3.18,2.25,2.69,3.14,5.45,3.56,6.55,1.06,2.76,2.37,4.32,3.71,4.32s2.17-1.96,3.69-5.51c2.43-5.63,6.4-13.39,9.06-18.44.55-1.05,1.36-1.94,2.36-2.6,2.45-1.61,4.87-3.21,7.27-4.8H76.73c8.54,5.67,17.37,11.42,26.54,17.41ZM361.32,598.8c-6.15-28.07-31.15-49.08-61.06-49.08s-54.91,21.01-61.06,49.08H0l11.14,22.64c.36.73.93,1.33,1.64,1.73l27.81,15.53h519.33l27.81-15.53c.71-.4,1.28-1,1.64-1.73l11.14-22.64h-239.19Z"/>
</svg>