<svg width="2788" height="1527" viewBox="0 0 2788 1527" fill="none" xmlns="http://www.w3.org/2000/svg">
<g clip-path="url(#clip0_173_3021)">
<path d="M1284.56 1348.79C1292.42 1357.6 1300.98 1366.71 1309.27 1376.02H1076.25C1062.7 1376.02 1050.94 1388.39 1045.21 1396.94C1041.39 1402.63 1035.34 1403.41 1029.57 1405.98C1023.98 1408.46 1019.59 1419.31 1018.46 1422.7C1017.33 1426.09 1016.71 1428.35 1014.71 1430.62C1012.08 1433.61 1010.49 1434.62 1010.17 1437.61C1009.65 1442.47 1007.28 1447.4 1006.43 1449.43C1005.58 1451.46 1004.07 1453.58 1003.07 1453.58C1002.07 1453.58 1000.23 1449.62 998.35 1447.17C996.47 1444.72 994.21 1440.77 993.27 1438.7C992.33 1436.63 984.8 1419.31 983.67 1417.43C982.54 1415.55 980.47 1411.41 979.34 1408.77C978.21 1406.13 973.32 1396.91 971.62 1393.9C969.93 1390.89 967.06 1387.88 965.23 1387.88C963.4 1387.88 961.53 1389.2 959.18 1389.2C956.83 1389.2 955.68 1388.15 953.73 1385.06C952.28 1382.76 949.65 1379.62 945.61 1376.61C945.1 1376.23 944.47 1376.03 943.83 1376.03H789.2C788.28 1376.03 787.37 1376.29 786.59 1376.77C784.15 1378.26 781.94 1379.69 780.6 1380.71C776.12 1384.12 773.33 1387.02 771.34 1389.96C769.35 1392.9 766.7 1395.66 763.22 1397.48C759.74 1399.3 751.08 1405.22 748.17 1406.55C745.26 1407.88 744.23 1410.74 743.1 1414.43C741.97 1418.12 716.9 1512.25 715.99 1516.08C715.08 1519.91 714.03 1526.83 712.81 1526.83C711.59 1526.83 710.78 1524.99 709.76 1523.23C708.74 1521.47 706.01 1516.45 705.63 1513.07C705.25 1509.68 703.76 1505.91 702.82 1501.95C701.88 1497.99 685.45 1435.96 683.84 1430.2C682.23 1424.44 679.35 1420.41 676.62 1418.36C674.56 1416.81 672.89 1415.56 669.69 1413.49C666.49 1411.42 665.17 1409.76 663.85 1407.13C662.53 1404.49 658.72 1398.54 657.44 1396.17C656.16 1393.8 654.63 1391.12 651.99 1391.12C649.35 1391.12 647.22 1393.12 641.98 1398.65C639.87 1400.87 639.2 1404.89 638.22 1408.6C637.24 1412.31 635.42 1414.24 633.91 1415.74C632.4 1417.25 627.7 1421.01 625.82 1423.08C623.94 1425.15 621.51 1427.4 620.38 1427.4C619.56 1427.4 618.68 1427.12 617.57 1426.48C616.2 1425.7 615.36 1423.91 614.33 1421.96C613.3 1420.01 609.86 1411.47 608.17 1408.64C606.48 1405.82 603.98 1403.39 602.52 1401.66C601.06 1399.94 597.97 1395.41 595.65 1392.59C593.33 1389.77 590.5 1388.12 587.05 1387.71C583.05 1387.23 581.44 1385.56 580.24 1384.31C579.24 1383.27 576.98 1381.18 571.25 1376.67C570.72 1376.26 570.07 1376.03 569.4 1376.03H485.08C484.44 1376.03 483.8 1376.17 483.24 1376.48C479.95 1378.24 476.53 1380.87 474.1 1382.61C470.15 1385.43 464.69 1386.19 463.75 1387.69C462.81 1389.2 459.7 1394.14 459.04 1396.93C458.38 1399.72 457.07 1404.04 455.36 1406.69C453.65 1409.34 447.57 1423.09 446.07 1425.73C444.56 1428.37 443.65 1430.44 441.58 1430.44C439.51 1430.44 438.36 1427.24 437.79 1425.17C437.23 1423.1 433.84 1414.44 432.14 1410.68C430.45 1406.92 425.92 1395.24 424.22 1393.55C423.19 1392.52 419.89 1386.66 417.2 1382.21C415.46 1379.33 414.48 1377.25 413.74 1377.25C409.73 1377.25 396.31 1381.88 393.58 1381.88C391.85 1381.88 386.43 1379.18 381.48 1376.76C380.52 1376.29 379.47 1376.05 378.41 1376.05H195.7C194.97 1376.05 194.26 1375.85 193.64 1375.48L148.32 1348.16H1283.11C1283.68 1348.16 1284.22 1348.4 1284.59 1348.82L1284.56 1348.79ZM1487.13 1369.88C1487.92 1371.04 1489.33 1372.91 1491.13 1375.25C1491.51 1375.74 1492.09 1376.03 1492.71 1376.03H1596.55C1597.26 1376.03 1597.96 1376.28 1598.5 1376.75C1602.38 1380.16 1604.48 1383.62 1605.7 1386.91C1608.97 1395.73 1610.94 1396.84 1614.04 1397.75C1616.51 1398.47 1619.76 1399.57 1621.68 1400.13C1625.14 1401.14 1626.53 1402.44 1627.66 1406.53C1628.63 1410.06 1630.8 1416.91 1631.22 1418.46C1631.64 1420.01 1633.14 1424.05 1635.68 1425.6C1638.22 1427.15 1640.57 1428.87 1642.03 1429.78C1644.47 1431.29 1646.06 1431.93 1646.06 1434.02C1646.06 1435.7 1643.81 1438.72 1643.81 1441.51C1643.81 1445.66 1646.03 1447.83 1647.03 1452.8C1647.46 1454.92 1648.87 1459.21 1650.42 1460.62C1651.97 1462.03 1653.64 1465.29 1654.03 1466.53C1654.46 1467.86 1654.77 1468.86 1655.62 1468.86C1656.47 1468.86 1657.91 1466.73 1659.6 1465.11C1662.99 1461.86 1670.86 1454.57 1675.67 1451C1676.26 1450.56 1676.65 1449.92 1676.76 1449.19C1680.28 1426.61 1685.12 1402.16 1685.88 1399.19C1686.66 1396.16 1687.26 1392.2 1691.36 1388.87C1693.48 1387.15 1700.76 1381.98 1707.66 1377.27C1708.82 1376.48 1710.2 1376.05 1711.61 1376.05H1719.92C1720.79 1376.05 1721.56 1376.62 1721.83 1377.45C1726.61 1392.35 1735.93 1416.18 1741.1 1424.61C1742.93 1427.6 1744.42 1430.52 1746.12 1430.52C1747.39 1430.52 1749.77 1427.62 1751.47 1422.73C1753.17 1417.84 1759.7 1399.76 1760.48 1397.13C1761.42 1393.98 1762.89 1391.29 1766.1 1389.82C1768.28 1388.82 1770.39 1388.28 1772.62 1385.57C1777.64 1379.47 1781.38 1376.98 1784.79 1376.98H1788.8C1791.25 1376.98 1791.97 1378.46 1793.95 1382.7C1795.21 1385.4 1800.19 1396.56 1800.94 1399C1801.69 1401.45 1802.99 1403.92 1804.35 1405.21C1805.72 1406.5 1807.93 1409.05 1808.86 1412.96C1809.79 1416.87 1816.19 1442.65 1816.94 1447.36C1817.69 1452.07 1827.14 1473.54 1828.46 1475.61C1829.78 1477.68 1830.91 1479.95 1831.85 1479.95C1832.79 1479.95 1834.84 1474.1 1836.53 1469.77C1838.22 1465.44 1846.32 1434.19 1847.26 1430.24C1848.2 1426.29 1851.93 1415.06 1856.64 1407.91C1861.35 1400.76 1864.45 1393.03 1866.46 1390.53C1869.15 1387.19 1870.13 1384.31 1874.62 1384.31C1879.63 1384.31 1881.74 1384.62 1883.71 1383.01C1887.69 1379.78 1891.64 1379.37 1893.92 1377.52C1894.37 1377.16 1894.85 1376.79 1895.33 1376.43C1895.67 1376.17 1896.09 1376.04 1896.52 1376.04H2243.93C2244.5 1376.04 2245.05 1376.29 2245.43 1376.72C2252.21 1384.43 2257.89 1391.79 2258.64 1394.54C2259.49 1397.65 2260.83 1400.43 2262.8 1403.82C2264.78 1407.21 2272.27 1421.75 2273.49 1423.26C2274.71 1424.77 2275.36 1427.19 2276.89 1427.19C2278.42 1427.19 2279.22 1425.35 2280.54 1421.02C2283.66 1410.76 2284.13 1405.68 2286.01 1403.7C2288.17 1401.43 2288.39 1398.62 2289.61 1394.76C2290.69 1391.34 2293.7 1381.1 2302.67 1376.37C2303.09 1376.15 2303.57 1376.04 2304.05 1376.04H2315.56C2316.23 1376.04 2316.87 1376.38 2317.23 1376.94C2322 1384.32 2328.67 1397.39 2329.39 1399.55C2330.24 1402.1 2333.06 1413.12 2335.32 1418.2C2337.58 1423.28 2345.58 1441.68 2346.61 1445.87C2347.65 1450.06 2349.27 1456.32 2350.68 1459.42C2352.09 1462.53 2352.17 1467.41 2352.46 1469.38C2352.74 1471.36 2357.3 1483.29 2358.67 1487.42C2359.94 1491.23 2360.67 1494.33 2362.15 1498.1C2362.23 1498.3 2362.41 1498.38 2362.6 1498.38C2362.8 1498.38 2362.98 1498.27 2363.06 1498.07C2364.1 1495.53 2364.67 1491.16 2365.42 1489.42C2366.27 1487.44 2370.7 1477.89 2371.43 1475.07C2372.16 1472.25 2376.83 1457.15 2378.24 1453.48C2379.65 1449.81 2381.35 1435.69 2383.32 1430.33C2385.3 1424.97 2389.81 1408.29 2391.76 1404.06C2393.7 1399.83 2394.34 1397.15 2397.72 1395.6C2399.79 1394.65 2402.2 1392.34 2404.58 1388.74C2406.96 1385.14 2409.66 1383.09 2412.2 1381.68C2413.52 1380.95 2416.78 1378.69 2419.93 1376.41C2420.27 1376.16 2420.68 1376.03 2421.1 1376.03H2644.73C2645.74 1376.03 2646.71 1375.65 2647.45 1374.96L2676.39 1348.13H1470.18C1479.52 1359.8 1485.98 1368.23 1487.09 1369.88H1487.13ZM1410.36 1166.56V1145.79C1410.36 1145.35 1410.22 1144.92 1409.94 1144.57C1387.77 1116 1359.08 1075.55 1351.66 1065.06C1349.35 1061.79 1347.71 1059.45 1347.71 1057.2C1347.71 1054.95 1352.18 1048.49 1355.57 1043.6C1358.67 1039.12 1426.14 937.76 1450.06 909.27C1450.55 908.69 1451.23 908.31 1451.98 908.22C1453.5 908.02 1454.95 907.89 1456.1 907.89C1458.43 907.89 1465.27 908.34 1471.22 909.27C1471.5 909.31 1471.75 909.09 1471.73 908.81C1471.33 903.51 1471.06 896.89 1470.97 890.13C1470.97 889.53 1471.14 888.94 1471.49 888.45C1483.92 870.87 1508.96 839.98 1533.47 821.68C1537.01 819.04 1544.76 812.82 1548.91 812.82C1553.06 812.82 1560.58 810.38 1565.85 810.38C1571.81 810.38 1576.01 814.32 1577.9 816.2C1579.78 818.08 1603.88 841.05 1609.15 847.82C1613.3 853.16 1644.54 887.68 1658.91 903.95C1659.35 904.45 1660.01 904.71 1660.67 904.61C1665.16 903.9 1670 901.85 1675.25 900.45C1675.41 900.41 1675.72 900.36 1675.88 900.36C1676.39 900.36 1676.6 900.73 1676.6 901.21C1676.64 905.3 1676.75 909.7 1677.09 916.35C1677.37 921.71 1677.09 928.54 1677.39 933.84C1677.42 934.41 1677.62 934.94 1677.95 935.4C1695.76 960.01 1740.64 1021.55 1750.29 1037.7C1753.4 1042.91 1758.07 1050.67 1758.07 1053.61C1758.07 1056.55 1753.45 1068.07 1752.32 1071.08C1751.19 1074.09 1746.42 1081.6 1731.49 1105.92C1720.94 1123.1 1695.79 1154.8 1678.18 1175.76C1675.77 1178.76 1673.23 1179.46 1669.95 1179.46C1664.16 1179.46 1658.6 1178.02 1652.76 1176.76C1652.46 1176.7 1652.17 1176.9 1652.14 1177.2C1651.44 1183.29 1649.1 1192.71 1648.47 1207C1648.39 1208.76 1647.73 1210.45 1646.59 1211.79C1644.78 1213.93 1642.87 1216.19 1640.88 1218.57C1640.45 1219.08 1640.2 1219.74 1640.17 1220.41C1640.1 1222.32 1640.05 1223.91 1640.05 1224.77C1640.05 1228.44 1638.72 1232.25 1638.01 1235.36C1637.3 1238.47 1630.37 1266.69 1629.86 1269.5C1629.35 1272.31 1629.04 1273.76 1628.06 1273.76C1626.9 1273.76 1625.13 1270.83 1624.02 1268.61C1623.17 1266.91 1618.81 1256.17 1615.92 1248.86C1615.65 1248.17 1614.75 1248.02 1614.26 1248.58C1597.3 1267.89 1580.66 1286.35 1573.17 1292.8C1568.71 1296.64 1561.33 1303.36 1557.21 1303.36C1554.57 1303.36 1551.92 1301.45 1545.52 1297.69C1539.12 1293.93 1511.83 1272.3 1483.4 1235.75C1474.55 1224.37 1435.25 1174.5 1428.61 1166.7C1427.64 1165.56 1426.6 1164.31 1425.5 1162.97C1425.1 1162.48 1424.43 1162.29 1423.84 1162.5L1411.03 1167.03C1410.7 1167.14 1410.36 1166.9 1410.36 1166.56ZM1439.73 1041.34C1439.73 1045.62 1444.05 1055.88 1448.07 1063.72C1448.38 1064.32 1448.54 1064.99 1448.51 1065.67C1448.37 1069.9 1447.91 1073.74 1446.79 1076.2C1445.42 1079.21 1442.6 1088.02 1442.42 1092.39C1442.42 1092.63 1442.58 1092.83 1442.81 1092.87C1445.92 1093.41 1450.61 1093.26 1454.95 1093.45C1456 1093.49 1456.99 1093.94 1457.71 1094.71C1474.19 1112.37 1518.93 1160.1 1527.07 1167.63C1536.69 1176.54 1553.05 1191.55 1557.38 1191.55C1559.54 1191.55 1563.56 1192.53 1570.73 1190.22C1577.91 1187.91 1588.61 1182.83 1603.87 1171.6C1633.8 1149.58 1654.69 1116.26 1659.59 1106.85C1664.49 1097.44 1675.03 1075.98 1675.03 1069.58C1675.03 1063.93 1673.45 1061.18 1669.38 1051.29C1665.05 1040.77 1658.84 1027.04 1656.96 1022.15C1656.13 1019.98 1653.01 1013.77 1649.24 1006.95C1649.03 1005.71 1649.14 1005.08 1649.22 1004.38C1649.35 1003.26 1650.19 1001.59 1651.17 999.99C1653.15 996.75 1654.49 992.97 1657.33 989.71C1657.53 989.49 1657.49 989.14 1657.23 988.99C1648.9 983.92 1636.88 979.25 1626.5 976.11C1624.68 974.15 1622.64 971.96 1620.46 969.61C1619.64 968.73 1618.58 968.14 1616.91 968.14C1614.51 968.14 1614.12 969.5 1613.1 973.06C1612.56 974.95 1608.58 987.44 1605.94 1005.6C1603.64 1021.41 1602.74 1046.92 1601.05 1059.15C1600.76 1061.25 1599.97 1065.25 1599.28 1067.23C1598.67 1068.95 1598.4 1070.16 1597.53 1070.16C1596.66 1070.16 1595.81 1068.26 1594.66 1065.8C1593.31 1062.89 1591.71 1059.2 1591.51 1056.91C1590.84 1049.46 1590.16 1029.31 1589.59 1025.92C1589.03 1022.53 1588.08 999.57 1587.52 995.8C1586.96 992.03 1584.36 958.5 1583.94 954.56C1583.47 950.14 1580.22 948.15 1579.63 944.74C1578.43 937.84 1577.75 931.22 1576.42 931.22C1575.79 931.22 1574.68 932.98 1573.62 935.25C1571.51 939.77 1568.44 947.11 1566.57 950.73C1565.11 953.56 1563.42 953.47 1560.97 954.04C1558.52 954.6 1555.72 962.68 1554.42 962.68C1553.12 962.68 1550.63 955.12 1549.86 951.01C1549.55 949.34 1548.79 941.85 1547.96 938.96C1546.74 934.73 1544.39 923.13 1542.27 916.07C1542.13 915.59 1541.64 915.29 1541.15 915.38C1534.71 916.55 1526.28 919.13 1516.77 924.67C1516.43 924.87 1516.05 924.96 1515.67 924.93C1509.88 924.49 1502.28 923.79 1496.96 923.15C1496.73 923.12 1496.52 923.26 1496.46 923.48C1494.88 929.13 1492.59 939.42 1489.65 947.05C1489.52 947.38 1489.34 947.67 1489.11 947.93C1485.22 952.32 1481.31 957.27 1477.4 962.88C1446.15 1007.68 1439.75 1036.84 1439.75 1041.36L1439.73 1041.34ZM1736.32 972.68C1737.03 972.68 1738.99 972.31 1741.01 971.9C1746.37 970.81 1748.37 970.39 1749.47 969.53C1751.03 968.32 1752.74 962.47 1759.8 948.07C1764.67 938.14 1780.74 907.39 1793.08 886.79C1793.36 886.33 1794.05 886.46 1794.14 886.99C1795.83 896.52 1798.41 907.8 1799.31 913.01C1799.52 914.26 1799.85 915.54 1800.4 915.54C1800.95 915.54 1801.12 914.38 1801.39 912.7C1802.05 908.65 1806.89 873.19 1808.59 867.26C1809.06 865.62 1809.63 863.53 1810.22 861.3C1810.45 860.43 1810.49 859.52 1810.33 858.63C1809.2 852.52 1807.75 845.39 1807.29 841.81C1807.25 841.51 1807.5 841.24 1807.8 841.24C1812.99 841.32 1817.78 842.46 1825.3 843.67C1825.68 843.73 1826.07 843.62 1826.35 843.36C1829.99 840.04 1833.68 836.9 1837.19 834.16C1837.47 833.94 1837.88 834.06 1837.99 834.4C1839.89 839.98 1841.83 847.65 1842.96 855.45C1843.93 862.12 1845.05 869.98 1845.17 871.27C1845.45 874.38 1846.75 888.05 1846.89 890.59C1847.03 893.13 1848.76 896.01 1850.45 896.01C1850.9 896.01 1850.94 894.98 1851.67 889.7C1852.71 882.19 1853.76 876.21 1854.86 869.08C1855.32 866.1 1855.77 857.14 1857.47 852.32C1858.83 848.45 1862 831.56 1867.04 820.6C1867.27 820.1 1867.71 819.73 1868.24 819.58C1879.87 816.19 1892.84 812.88 1896.98 812.1C1901.38 811.26 1908.4 811.21 1910.66 811.21C1913.98 811.21 1916.55 811.84 1917.64 814.43C1919.61 819.11 1921.85 824.3 1921.85 826.34C1921.85 828.12 1920.97 830.76 1920.18 832.86C1918.49 837.38 1872.86 968.11 1854.06 1013.28C1848.32 1027.08 1837.21 1055.87 1825.04 1087.43C1824.87 1087.87 1824.56 1088.23 1824.15 1088.46C1815.87 1093.08 1805.11 1097.03 1803.89 1097.4C1802.48 1097.82 1801.43 1098.58 1801.43 1099.71C1801.43 1100.84 1802.7 1102.78 1803.55 1104.06C1804.4 1105.34 1808.35 1112.92 1809.34 1115.18C1810.01 1116.71 1811.02 1118.57 1811.61 1120.76C1811.77 1121.35 1811.7 1121.97 1811.49 1122.54C1807.3 1133.35 1803.17 1143.96 1799.27 1153.92C1799.02 1154.56 1798.88 1155.23 1798.86 1155.91C1798.81 1157.25 1798.76 1158.31 1798.76 1158.87C1798.76 1160 1800.23 1161.67 1801.36 1162.8C1802.49 1163.93 1807.43 1170.15 1811.52 1175.76C1811.79 1176.13 1811.73 1176.64 1811.37 1176.93C1807.27 1180.33 1791.82 1192.08 1781.44 1200.07C1780.64 1200.69 1780 1201.5 1779.6 1202.42C1778.76 1204.34 1777.99 1206.06 1777.31 1207.54C1763.19 1238.03 1746.38 1270.79 1744.12 1274.74C1741.86 1278.69 1736.81 1282.65 1736.81 1288.86C1736.81 1295.07 1737.41 1302.75 1745.32 1302.75C1753.23 1302.75 1937.77 1300.11 1951.32 1300.11C1961.48 1300.11 1971.38 1304.18 1973.92 1305.31C1976.46 1306.44 1980.18 1309.83 1982.26 1312.29C1984.34 1314.74 1985.98 1317.37 1988.24 1317.37C1990.26 1317.37 1992.28 1316.2 1992.54 1312.54C1993.19 1303.51 1995.27 1290.2 1998.83 1270.54C1998.93 1269.96 1998.88 1269.36 1998.66 1268.82C1997.17 1265.12 1995.43 1261.45 1994.24 1258.92C1993.37 1257.07 1992.88 1255.95 1992.88 1255.68C1992.88 1255.39 1993.61 1254.53 1994.9 1253.34C1996.95 1251.43 2000.16 1248.74 2002.97 1246.72C2003.36 1246.44 2003.63 1246.04 2003.73 1245.57C2013.8 1199.78 2034.68 1129.66 2038.98 1116.91C2045.06 1098.88 2046.04 1096.65 2046.04 1095.24C2046.04 1093.83 2044.91 1092.78 2043.22 1092.78C2041.53 1092.78 2034.93 1093.74 2033.58 1094.07C2032.24 1094.41 2030.59 1094.97 2029.33 1098.6C2028.13 1102.06 2018.23 1127.92 2005.49 1153.33C1992.76 1178.74 1970 1224.52 1942.89 1244C1927.39 1255.14 1921.43 1259.33 1893.76 1259.33C1848.3 1259.33 1846.04 1250.74 1846.04 1246.51C1846.04 1243.79 1873.09 1166.14 1897.98 1097.3C1898.16 1096.81 1898.53 1096.4 1899.12 1096.4C1899.53 1096.4 1899.83 1096.98 1899.91 1097.5C1901.18 1105.73 1902.54 1113.51 1903.24 1116.72C1903.98 1120.09 1905.35 1127.6 1905.76 1130.21C1906.05 1132.09 1906.23 1133.01 1906.85 1133.01C1907.94 1133.01 1909.56 1131.04 1909.7 1129.63C1909.84 1128.22 1910.19 1119.86 1910.98 1115.5C1911.5 1112.65 1915.03 1067.13 1917.04 1046.21C1917.12 1045.34 1917.32 1044.48 1917.63 1043.66C1919.98 1037.35 1922.21 1031.42 1924.28 1025.99C1924.41 1025.64 1924.74 1025.4 1925.12 1025.4C1928.43 1025.33 1932.26 1025.45 1935.97 1025.44C1938.89 1025.44 1941.57 1025.35 1944 1025.03C1944.3 1024.99 1944.51 1024.72 1944.48 1024.42C1943.32 1010.93 1940.47 999.3 1938.71 990.87C1938.56 990.15 1938.62 989.42 1938.89 988.74C1945.67 971.45 1956.73 943.15 1968.2 913.92C1968.33 913.59 1968.28 913.22 1968.07 912.93C1964.97 908.83 1961.75 905.11 1961.75 903.61C1966.02 900.25 1972.61 895.69 1976.02 892.5C1976.66 891.9 1977.15 891.15 1977.47 890.33C1991.52 854.62 2004.6 821.62 2009.48 810.17C2021.34 782.31 2034.19 756.71 2037.2 751.44C2040.21 746.17 2044.74 740.8 2044.74 737.41C2044.74 734.77 2043.47 731.92 2039.89 731.92C2036.31 731.92 2024.02 733.22 2005.9 734.79C2004.65 734.9 2003.42 735.19 2002.25 735.65C1995.97 738.13 1982.07 743.17 1964.03 749.12C1963.44 749.31 1962.95 749.75 1962.71 750.33C1960.59 755.36 1959.04 760.65 1958.27 765.74C1958.22 766.06 1957.85 766.21 1957.6 766.01C1955.08 763.94 1950.16 759.19 1946.03 755.39C1945.79 755.17 1945.45 755.09 1945.14 755.19C1932.57 759.12 1918.85 763.21 1904.78 767.06C1904.28 767.2 1903.77 766.94 1903.57 766.46C1900.62 759.4 1896.48 753.94 1894.09 751.36C1893.69 750.93 1893.02 750.95 1892.65 751.4C1888.76 756.26 1878.66 767.75 1872.16 774.66C1871.63 775.23 1870.94 775.62 1870.18 775.8C1852.78 779.78 1835.85 782.94 1820.92 784.57C1813.54 785.37 1808.28 785.78 1805.28 785.78C1800.73 785.78 1795.65 784.71 1789.86 779.32C1787.66 777.27 1785.83 775.08 1784.3 775.08C1782.77 775.08 1781.91 777.14 1781.63 779.39C1781.14 783.39 1780.67 785.37 1779.82 790.73C1778.97 796.09 1739.63 948.15 1736.34 959.34C1734.99 963.92 1733.8 968.16 1733.8 970.14C1733.8 971.55 1734.51 972.66 1736.34 972.66L1736.32 972.68ZM2036.13 928.84C2036.13 929.56 2036.92 930.92 2038.09 932.82C2041.7 938.63 2049.74 949.43 2051.14 959.33C2051.23 959.96 2051.1 960.6 2050.8 961.15C2045.78 970.68 2040.51 979.5 2035.13 986.77C2032.57 990.22 2031.19 992.62 2031.19 995.25C2031.19 997.88 2035.15 1003.54 2037.48 1007.64C2044.81 1020.49 2063.92 1059.03 2076.94 1098.73C2086.22 1127.01 2099.5 1167.82 2099.5 1206.98C2099.5 1226.93 2098.39 1238.98 2098.39 1241.62C2098.39 1246.17 2100.91 1250.94 2105.76 1250.94C2109.9 1250.94 2120.76 1246.31 2141.09 1246.31C2149.55 1246.31 2158.54 1247.12 2167.48 1248.55C2168.34 1248.69 2169.09 1249.2 2169.55 1249.95C2176.42 1261.17 2186.47 1282.04 2187.11 1283.32C2187.86 1284.83 2188.73 1286.98 2189.77 1286.98C2190.81 1286.98 2191.44 1284.73 2192.76 1280.97C2193.86 1277.82 2198.15 1264.02 2204.82 1259.62C2205.59 1259.11 2206.57 1259.05 2207.43 1259.38C2230.26 1268.12 2274.32 1287.01 2279.26 1289.65C2284.91 1292.66 2297.86 1299.21 2304.73 1308.77C2307.39 1312.46 2308.32 1315.61 2310.55 1315.61C2312.78 1315.61 2314.05 1313.64 2315 1308.46C2316.56 1299.88 2363.08 1040.75 2363.9 1021.61C2363.91 1021.35 2363.72 1021.13 2363.46 1021.1C2362.8 1021.03 2362.09 1021.01 2360.8 1021.01C2357.48 1021.01 2351.68 1022.8 2350.63 1024.65C2349.12 1027.29 2323.15 1116.07 2316.15 1132.85C2294.31 1185.18 2287.16 1197.78 2265 1197.78C2237.19 1197.78 2206.77 1181.52 2182.67 1156.6C2182 1155.91 2181.04 1155.57 2180.09 1155.71L2159.16 1158.77C2158.82 1158.82 2158.53 1158.53 2158.6 1158.19C2159.04 1155.89 2160.48 1148.29 2161.23 1143.63C2161.71 1140.65 2162.17 1137.4 2162.42 1133.07C2162.48 1131.99 2162.2 1130.91 2161.61 1130C2156.89 1122.65 2152.73 1114.91 2149.27 1106.91C2137.9 1080.59 2133.94 1049.32 2133.94 1026.73C2133.94 1018.82 2140.05 1016.46 2143.44 1015.7C2144.86 1015.38 2154.76 1013.74 2166.55 1011.83C2167.03 1011.75 2167.5 1012.02 2167.67 1012.48C2169.75 1018.2 2171.77 1024.16 2172.15 1026.58C2173.7 1036.46 2176.44 1040.38 2176.81 1043.1C2177.23 1046.19 2179.24 1052.84 2180.84 1056.98C2180.97 1057.32 2181.24 1057.79 2181.7 1057.79C2182.16 1057.79 2182.39 1057.3 2182.5 1056.91C2183.67 1052.88 2184.63 1047.3 2185.7 1042.66C2186.97 1037.15 2189.09 1032.21 2191.77 1019.22C2192.74 1014.53 2194 1009.63 2195.22 1005.29C2195.36 1004.78 2195.71 1004.36 2196.18 1004.11C2204.48 999.61 2210.84 993.61 2215.56 988.98C2215.98 988.57 2216.82 987.57 2217.63 987.57C2218.34 987.57 2218.58 988.16 2218.96 988.83C2220.88 992.29 2224.61 997.32 2230.63 999.83C2231.89 1000.35 2233.29 1000.43 2234.62 1000.15C2247.47 997.4 2259.11 994.68 2260.43 994.68C2262.69 994.68 2264.39 996.92 2265.15 1001.43C2265.82 1005.43 2268.86 1039.41 2273.54 1046.05C2273.79 1046.41 2274.17 1046.6 2274.52 1046.6C2274.93 1046.6 2275.31 1046.25 2275.4 1045.74C2285.7 987.51 2301.31 942.25 2323.07 891.48C2323.27 891.02 2324.03 888.81 2324.03 888.11C2324.03 887.46 2323.88 886.89 2323.41 886.89C2322.67 886.89 2320.46 888.75 2319.98 889.13C2311.34 896.03 2291.37 910.81 2242.39 925.85C2231.15 929.3 2221.05 931.92 2211.26 934.14C2210.53 934.31 2209.76 934.19 2209.11 933.82C2207.24 932.76 2205.48 931.18 2204.05 929.14C2201.61 925.67 2198.53 921.95 2195.93 919.59C2195.34 919.06 2194.45 919.13 2193.95 919.74C2190.96 923.35 2186.07 931.1 2182.57 935.29C2180.03 938.34 2175.64 940.02 2169.52 941.48C2158.84 944.02 2144.99 946.46 2140.71 946.46C2138.45 946.46 2133.58 939.06 2133.58 937.18C2133.58 929.46 2143.69 885.1 2150.26 857.52C2150.37 857.06 2150.65 856.68 2151.05 856.42C2158.28 851.88 2169.5 844.46 2172.62 842.01C2172.9 841.79 2172.9 841.37 2172.62 841.16C2168.89 838.37 2162.06 832.15 2158.42 828.17C2158 827.71 2157.84 827.08 2158 826.47C2163.85 804.23 2173.15 770.62 2174.98 768.79C2176.69 767.08 2194.14 748.92 2213.53 734.82C2214.07 734.43 2214.45 733.87 2214.61 733.23C2215.56 729.5 2215.78 724.23 2215.78 723.16C2215.78 721.75 2216.06 716.58 2218.24 716.58C2220.2 716.58 2228.14 720.19 2233.91 720.19C2234.21 720.19 2234.54 720.22 2234.72 720.36C2234.9 720.5 2235 720.76 2235.06 721.05C2238.83 737.42 2247.82 773.25 2251.92 785.44C2253.13 789.04 2253.73 791.38 2254.07 792.58C2254.41 793.78 2254.86 796.54 2255.96 796.54C2257.06 796.54 2257.53 794.21 2257.92 791.82C2260.15 778.52 2266.31 752.43 2267.16 749.33C2268.01 746.22 2269.47 739.04 2269.84 733.04C2270.21 727.08 2270.36 722.08 2270.8 719.37C2270.86 718.97 2271.38 718.84 2271.63 719.16C2273.24 721.13 2274.98 725.58 2276.84 726.57C2278.96 727.7 2281.34 734.04 2282.06 736.15C2282.78 738.26 2283.79 740.54 2284.78 740.54C2285.77 740.54 2286.56 738.81 2287.34 736.15C2288.12 733.49 2288.81 727.02 2292.17 724.86C2292.7 724.52 2293.23 724.28 2293.87 724.11C2294.48 723.95 2295.13 724.12 2295.62 724.52C2300.2 728.32 2303.59 732.03 2305.36 733.96C2310.6 739.67 2312.14 742.81 2313.39 742.81C2314.37 742.81 2314.45 740.94 2314.45 739.19C2314.45 736.14 2315.06 724.32 2315.65 716.43C2317.81 687.27 2324.71 656.59 2324.71 646.39C2324.71 640.21 2316.48 638.34 2311.01 638.34C2294.56 638.34 2273.48 649.87 2257.02 660.38C2233.63 675.32 2207.48 691.34 2182.82 704.44C2182.18 704.78 2181.44 704.87 2180.75 704.67C2171.01 701.87 2161.13 695.74 2157.89 695.74C2156.31 695.74 2156.37 696.69 2156.37 698.38C2156.37 702.68 2156.19 711.13 2155.12 716.57C2154.94 717.48 2154.31 718.24 2153.46 718.61C2142.45 723.45 2132.2 727.43 2123.2 729.66C2117.95 730.96 2113.61 733.37 2113.61 737.14C2113.61 752.4 2112.76 784.43 2098.37 835.77C2098.19 836.4 2098.15 837.06 2098.28 837.7C2099.54 843.77 2103.45 850.12 2103.45 855.77C2103.45 861.01 2099.81 862.65 2099.81 865.51C2099.81 866.79 2100.83 867.89 2101.73 869.23C2103.02 871.15 2103.65 872.18 2103.65 873.28C2103.65 874.38 2100.72 877.57 2098.78 880.23C2097.83 881.53 2096.47 882.68 2093.23 883.12C2091.01 883.42 2087.42 884.41 2084.05 885.82C2083.04 886.24 2082.25 887.06 2081.88 888.09C2078.29 898.01 2073.66 910.37 2068.29 923.32C2068 924.02 2067.35 924.5 2066.6 924.59C2056.32 925.76 2049.89 927.22 2039.3 927.69C2037.32 927.78 2036.13 928.11 2036.13 928.84ZM2771.87 874.85C2730.36 857.43 2692.05 830.36 2670.31 798.73C2665.37 791.54 2662.32 781.87 2662.32 770.74C2662.32 766.45 2662.83 715.03 2663.31 660.77C2663.31 660 2663.15 659.25 2662.82 658.56C2660.41 653.52 2658 648.36 2658 645.36C2658 637.44 2663.31 631 2663.63 624.44V623.42C2663.51 618.1 2661.26 613.57 2661.26 610.4C2661.26 607.55 2662.45 604.14 2663.62 600.63C2663.75 600.23 2663.82 599.8 2663.83 599.38C2664.03 573.17 2664.17 550.88 2664.17 538.92C2664.17 474.54 2677.78 370 2677.78 368.31C2677.78 366.95 2676.85 366.58 2675.31 366.58C2673.77 366.58 2668.86 369.68 2665.29 372.07C2644.4 386.02 2621.62 399.64 2564.84 436.33C2563.28 437.34 2559.29 446.14 2556.91 452.82C2555.81 455.92 2555.45 457.47 2555.45 459.76C2555.45 461.57 2555.94 464.14 2557.3 468.85C2561.36 482.99 2569.57 508.58 2570.22 512.58C2573.79 534.79 2577.04 558.24 2580 580.52C2580.11 581.36 2579.68 582.17 2578.92 582.55C2573.72 585.16 2567.99 588.48 2562.48 590.3C2562.15 590.41 2562.04 590.64 2562.04 590.91C2562.04 591.22 2562.22 591.51 2562.45 591.78C2566.01 596.13 2576.7 608.56 2584.21 617.26C2585.27 618.48 2585.92 619.99 2586.1 621.6C2590.05 656.96 2592.83 691.29 2594.79 722.58C2594.84 723.39 2595.21 724.13 2595.82 724.65C2598.6 727.04 2602.71 730.64 2605.63 733.44C2606.02 733.82 2606.04 734.44 2605.66 734.84C2602.88 737.74 2599.62 742.44 2596.84 746.2C2596.43 746.76 2596.22 747.45 2596.26 748.14C2599.36 807.97 2599.48 852.96 2599.48 866.35C2599.48 868.66 2599.08 911.87 2599.08 913.98C2599.08 918.73 2597.38 921.93 2593.3 921.93C2584.59 921.93 2575.19 912.9 2569.32 904.19C2556.23 884.78 2528.79 834.22 2525.89 828.86C2525.73 828.57 2525.44 828.4 2525.11 828.38C2522.28 828.18 2519.03 826.3 2519.03 821.43C2519.03 819.91 2519.28 818.17 2519.71 816.81C2521.01 811.14 2526.51 791.68 2528.18 784.12C2528.33 783.46 2527.77 782.86 2527.1 782.95C2523.56 783.43 2515.39 785.1 2512.33 785.1C2510.01 785.1 2506.91 784.94 2504.59 784.36C2503.99 784.21 2503.49 783.79 2503.22 783.23C2482.69 740.18 2465.6 699.77 2458.42 679.04C2440.69 627.82 2418.97 570.13 2416.71 565.61C2414.45 561.09 2411.03 553.24 2406 553.24C2399.6 553.24 2393.51 574.27 2393.51 578.89C2393.51 580.93 2393.68 645.59 2393.33 732.79C2393.33 733.53 2393.06 734.26 2392.56 734.8C2386.48 741.28 2376.24 746.1 2374.32 747.18C2370.7 749.21 2368.19 750.18 2368.19 751.17C2368.19 752.16 2369.44 753.36 2370.85 754.91C2371.86 756.02 2384.28 771.01 2392.49 781.44C2392.88 781.94 2393.09 782.55 2393.09 783.18C2392.95 806.8 2392.77 831.36 2392.54 856.25C2392.26 886.61 2391.94 917.37 2391.6 947.36C2391.6 947.84 2391.82 948.28 2392.21 948.55C2396.66 951.68 2401.82 955.74 2406.92 960.04C2407.12 960.21 2407.15 960.5 2406.98 960.7C2404.25 963.96 2397.59 973.3 2391.64 980.92C2391.36 981.28 2391.21 981.72 2391.2 982.18C2389.85 1094.91 2388.36 1189.23 2387.89 1197.33C2385.19 1243.25 2381.3 1278.84 2374.9 1300.11C2373.2 1305.76 2372.48 1306.93 2372.48 1309.47C2372.48 1311.55 2373.96 1315.33 2377.13 1315.33C2380.3 1315.33 2382.93 1312.66 2388.95 1309.46C2397.07 1305.15 2437.82 1282.73 2443.76 1278.57C2448.52 1275.23 2450.94 1272.9 2450.94 1270.06C2450.94 1267.22 2447.75 1262.64 2446.09 1255.33C2441.12 1233.44 2437.91 1156.95 2437.91 1116.01C2437.91 1104.58 2438.01 1093.8 2438.2 1083.62C2438.2 1083.32 2438.36 1083.04 2438.61 1082.87C2447.71 1076.7 2450.31 1073.58 2452.55 1071.88C2454.95 1070.04 2456.28 1069.17 2456.28 1068.33C2456.28 1067.49 2454.67 1066.32 2453.82 1065.47C2453.12 1064.77 2444.37 1055.37 2438.74 1049.19C2438.42 1048.84 2438.26 1048.37 2438.28 1047.9C2441.41 977.77 2449.69 944.37 2453.96 929.84C2455.66 924.05 2457.46 920.15 2459.73 917.8C2460.16 917.35 2460.91 917.4 2461.28 917.91C2461.84 918.68 2462.26 919.49 2462.46 920.28C2463.21 923.29 2470.73 947.72 2473.37 966.16C2474.17 971.78 2475.24 974.27 2475.81 977.09C2476.38 979.91 2478.77 1000.3 2478.96 1001.99C2479.15 1003.68 2480.39 1007.41 2481.54 1007.41C2482.32 1007.41 2482.64 1005.95 2482.97 1005.21C2485.49 999.4 2488.75 993.21 2490.47 990.99C2492.19 988.77 2492.98 985.17 2493.51 979.54C2493.86 975.76 2495.95 963.74 2497.68 955.28C2497.78 954.81 2498.41 954.74 2498.61 955.17C2505.07 969.43 2512.17 987.32 2516.95 1010.15C2517.02 1010.47 2517.22 1010.74 2517.51 1010.88C2523.51 1013.77 2532.65 1016.9 2538.09 1018.7C2538.72 1018.91 2538.95 1019.68 2538.54 1020.2C2536.04 1023.36 2530.58 1029.85 2523.89 1034.2C2523.54 1034.43 2523.37 1034.85 2523.47 1035.26C2536.06 1082.85 2543.8 1137.84 2543.8 1206.65C2543.8 1259.36 2540.96 1274.32 2540.96 1276.58C2540.96 1278.84 2541.69 1280.52 2543.95 1280.52C2546.21 1280.52 2580.47 1254.23 2592.96 1233.96C2594.07 1232.16 2594.46 1230.65 2594.52 1228.57C2594.56 1227.17 2594.34 1224.41 2594.34 1223.21C2594.34 1220.22 2593.73 1213.95 2596.57 1208.31C2606.85 1187.87 2615.69 1165.07 2623.03 1143.58C2623.2 1143.09 2623.9 1143.15 2624 1143.65C2624.86 1148 2625.8 1151.73 2626.69 1154.6C2628.48 1160.34 2629.09 1162.86 2629.7 1165.41C2630.31 1167.97 2630.76 1169.63 2631.56 1169.63C2632.36 1169.63 2632.57 1166.53 2632.81 1165.04C2633.47 1160.95 2634.4 1160.33 2634.96 1153.23C2635.65 1144.61 2636.23 1123.77 2636.23 1101.53C2636.23 1098.16 2636.45 1094.78 2636.45 1092.8C2636.45 1090.21 2633.07 1090.33 2633.07 1087.35V1081.62C2633.07 1079.54 2634.55 1078.58 2636.66 1076.45C2637.36 1075.74 2641.9 1071.43 2642.96 1070.29C2644.5 1068.63 2645.77 1067.01 2645.77 1065.71C2645.77 1063.88 2644.46 1062.07 2644.46 1057.66C2644.46 1055.35 2644.56 1050.94 2644.56 1047.49C2644.56 1043.09 2648.04 1041.61 2651.7 1039.34C2652.38 1038.91 2652.87 1038.24 2653.04 1037.45C2658.47 1011.93 2664.02 981.54 2664.61 977.66C2665.46 972.01 2667.43 965.05 2674.77 957.85C2703.31 929.86 2731.89 912.33 2773.31 893.19C2781.74 889.29 2787.28 885.5 2787.28 882.99C2787.28 880.48 2780.22 878.3 2771.9 874.8L2771.87 874.85ZM1507.98 1448.93C1507.98 1451.02 1504.97 1454.24 1502.32 1454.24C1500.67 1454.24 1495.73 1452.45 1489.79 1450.93C1472.69 1446.57 1411.55 1428.02 1378.57 1419.58C1375.17 1418.71 1375.18 1415.54 1375.18 1414.7V1410.72C1375.18 1407.17 1374.01 1404.1 1371.4 1400.64C1339.43 1358.27 1314.47 1320.52 1291.92 1285.36C1291.54 1284.77 1290.71 1284.74 1290.28 1285.3C1288.23 1287.97 1286.04 1294.65 1284.77 1301.03C1284.4 1302.89 1284.23 1304.35 1283.36 1304.35C1282.38 1304.35 1280.56 1299.49 1280.56 1295.49C1280.56 1291.49 1279.93 1288.39 1279.03 1284.58C1278.4 1281.91 1277.92 1272.56 1277.24 1264.66C1277.17 1263.8 1276.9 1262.97 1276.48 1262.22C1274.49 1258.73 1272.5 1255.23 1270.51 1251.74C1270.1 1251.03 1269.88 1250.22 1269.86 1249.4C1269.66 1242.03 1269.14 1232.05 1268.6 1225.9C1268.55 1225.28 1267.94 1224.87 1267.35 1225.04C1264.53 1225.84 1260.33 1226.68 1259.1 1226.68C1257.69 1226.68 1255.99 1226.46 1254.59 1224.09C1252.39 1220.35 1250.16 1216.6 1247.91 1212.86C1247.67 1212.46 1247.04 1212.58 1246.98 1213.05C1246.25 1218.57 1246 1224.43 1245.98 1227.45C1245.98 1227.78 1245.89 1228.09 1245.73 1228.38C1242.88 1233.65 1240.6 1244.63 1239.81 1249.01C1239.33 1251.65 1239.07 1254.44 1238.24 1254.44C1237.41 1254.44 1236.86 1251.63 1236.19 1249.16C1233.66 1239.84 1226.11 1197.31 1224.37 1178.31C1224.3 1177.52 1224.03 1176.76 1223.6 1176.09C1207.61 1151.16 1186.95 1123.12 1165.19 1099.68C1163.27 1097.61 1161.67 1095.64 1158.53 1095.64C1154.92 1095.64 1152.57 1099.88 1151.15 1104.96C1149.74 1110.04 1147.2 1127.15 1147.2 1141.09C1147.2 1148.06 1148.09 1177.51 1148.46 1190.75C1148.47 1191.2 1148.41 1191.63 1148.27 1192.05C1145.88 1199.13 1140.67 1209.98 1137.29 1216.63C1136.97 1217.25 1137.01 1217.98 1137.4 1218.56C1140.11 1222.7 1144.74 1229.29 1147.96 1235.22C1148.39 1236.01 1148.66 1236.86 1148.79 1237.74C1151.71 1257.38 1155.12 1279.93 1155.12 1281.22C1155.12 1283.3 1150.98 1284.51 1148.16 1285.27C1145.34 1286.02 1077.43 1301.62 1074.8 1301.62C1072.17 1301.62 1068.24 1299.8 1068.24 1298.1C1068.24 1296.4 1069.86 1293.18 1070.62 1290.36C1071.37 1287.54 1079.75 1244.23 1081.16 1221.08C1081.54 1214.92 1082.99 1178.44 1084.31 1142.91C1080.35 1135.61 1069.89 1128.42 1065 1124.21C1064.58 1123.85 1064.57 1123.21 1064.96 1122.82C1070.63 1117.24 1075.72 1113.38 1078.96 1109.59C1084.12 1103.55 1086.58 1093.25 1086.58 1063.91C1086.36 1041.58 1085.56 976.65 1084.84 918.33C1084.84 917.64 1085.18 916.99 1085.78 916.63C1087.68 915.49 1089.53 914.21 1091.08 913.08C1094.25 910.76 1095.7 908.37 1095.7 906.91C1095.7 904.74 1089.49 890.2 1084.92 879.8C1084.54 878.94 1084.34 878.01 1084.33 877.07C1083.88 840.58 1083.54 813.32 1083.54 812.3C1083.54 809.37 1078.12 791.34 1076.44 784.14C1076.32 783.63 1076.72 783.35 1077.02 783.35C1077.3 783.35 1077.65 783.44 1077.82 783.51C1084.77 786.24 1098.63 792.75 1101.22 792.75C1104.04 792.75 1120.33 780.33 1127.67 774.68C1135.01 769.03 1152.83 752.49 1154.53 752.49C1156.23 752.49 1156.35 753.78 1156.35 755.48C1156.35 757.18 1148.48 796.46 1147.91 800.13C1147.34 803.8 1149.2 805.86 1150.9 806.99C1152.59 808.12 1156.03 810.82 1158.52 812.75C1166.07 818.61 1168.68 821.26 1172.07 821.26C1179.27 821.26 1218.56 806.81 1229.6 806.81C1233.47 806.81 1235.77 808.87 1238.39 808.87C1240.25 808.87 1241.91 806.88 1243.04 805.46C1244.07 804.17 1247.8 799.46 1250.47 796.75C1250.86 796.36 1251.49 796.39 1251.84 796.81C1256.46 802.4 1265.92 815.05 1268.07 818.28C1270.33 821.67 1274.62 823.18 1276.54 823.93C1295.78 831.39 1305.7 835.66 1318.59 842.71C1324.96 846.19 1331.9 850.85 1337.68 856.43C1337.96 856.7 1338.07 857.12 1337.94 857.49C1337.56 858.52 1337.05 859.51 1336.45 860.42C1336 861.09 1335.83 861.92 1336.02 862.71C1336.99 866.76 1337.52 871.7 1337.93 876.51C1337.98 877.15 1338.61 877.58 1339.23 877.39C1348.32 874.7 1351.39 873.5 1356.1 873.29C1356.72 873.26 1357.35 873.39 1357.91 873.65C1369.62 879 1374.28 885.2 1378.55 890.67C1389.47 904.65 1393.15 925.64 1393.15 932.49C1393.15 934.38 1391.3 942.76 1388.57 945.72C1381.95 952.89 1370.56 963.33 1367.46 965.87C1359.79 972.15 1337.22 988.88 1313.79 1006.1C1313.32 1006.45 1313.03 1006.99 1313.01 1007.57C1312.74 1015 1312.42 1023.63 1312.24 1028.69C1312.2 1029.77 1311.29 1030.54 1310.22 1030.4C1304.2 1029.6 1294.98 1027.93 1287.16 1026.43C1286.6 1026.32 1286.02 1026.46 1285.56 1026.79C1266.38 1040.83 1250.98 1052.09 1248.94 1053.77C1244.82 1057.17 1243.21 1060.71 1243.21 1063.53C1243.21 1066.35 1245.18 1069.77 1246.48 1071.55C1247.68 1073.2 1293.45 1149.91 1327.8 1203.23C1329.81 1206.35 1331.82 1207.27 1334.81 1207.27C1338.58 1207.27 1349.36 1200.84 1354.06 1200.35C1354.34 1200.32 1354.59 1200.52 1354.59 1200.81C1354.62 1204.87 1354.89 1227.3 1354.99 1233.06C1355.08 1238.7 1355.64 1254.2 1357.78 1258.18C1367.42 1271.36 1380.16 1288.74 1393.31 1306.65C1395.86 1310.12 1400.84 1310.86 1407.9 1313.12C1408.53 1313.32 1408.8 1314.07 1408.46 1314.64C1405.02 1320.36 1406.13 1324.11 1407.45 1325.91C1431.97 1359.28 1454.5 1389.83 1457.24 1393.32C1463.45 1401.23 1492.33 1432.49 1497.33 1437.37C1503.44 1443.32 1507.98 1446.82 1507.98 1448.91V1448.93ZM1263.09 990.18C1287.39 967.53 1294.81 945.8 1294.81 936.49C1294.81 932.08 1293.35 928.65 1291.28 926.3C1290.69 925.63 1290.18 924.84 1290.18 923.69C1290.18 922.97 1290.45 922.44 1290.81 921.79C1291.18 921.1 1291.58 920.34 1292 919.53C1293.26 917.11 1294.3 915.19 1294.3 914.09C1294.3 912.75 1292.79 911.3 1289.74 909.4C1284.92 906.4 1280.93 904.11 1272.8 899.91C1272.49 899.75 1272.1 899.93 1272.04 900.28C1269.9 913.76 1264.14 937.33 1262.61 945.81C1262.3 947.5 1261.84 950.43 1260.92 950.43C1260 950.43 1257.63 948.47 1257.35 946.11C1257.07 943.76 1256.13 929.65 1254.89 925.57C1253.65 921.49 1253.01 908.35 1252.63 903.36C1252.31 899.11 1250.02 890.15 1249.35 882.46C1249.27 881.54 1248.8 880.69 1248.02 880.18C1246.29 879.06 1244.49 878.01 1242.59 877.04C1242.3 876.89 1241.94 877.06 1241.85 877.37C1240.74 881.19 1238.72 881.54 1236.42 883.88C1235.18 885.14 1234.27 887.36 1233.14 889.79C1232.98 890.14 1232.63 890.47 1232.31 890.47C1231.97 890.47 1231.62 890.26 1231.4 889.93C1229.73 887.44 1228.19 884.58 1227.25 881.32C1226.14 877.48 1223.83 876.21 1222.75 871.39C1222.66 870.97 1222.33 870.65 1221.91 870.58C1220.81 870.41 1219.68 870.26 1218.53 870.13C1217.74 870.04 1216.95 870.43 1216.55 871.11C1211.62 879.54 1210.6 886.46 1210.1 892.95C1209.73 897.76 1207.73 901.79 1205.62 906.49C1205.46 906.86 1205.18 907.23 1204.76 907.23C1204.37 907.23 1204.07 906.82 1203.9 906.39C1202.87 903.69 1201.82 900.32 1201.23 898.84C1200.48 896.96 1197.88 893.42 1196.9 888.77C1196.07 884.86 1188.78 868.73 1185.93 862.1C1185.8 861.79 1185.51 861.58 1185.18 861.53C1174.8 860.23 1164 859.54 1153.09 859.5C1152.55 859.5 1152.11 859.93 1152.12 860.47C1152.2 869.83 1152.3 885.36 1152.36 901.71C1152.36 902.43 1152.11 903.13 1151.64 903.69C1148.68 907.28 1144.1 910.04 1144.1 912.74V917.16C1144.1 919.89 1139.97 923.3 1139.97 926.54C1139.97 929.01 1141.02 931.19 1143.09 935.65C1147.16 944.4 1152.54 956.8 1154.49 965.61C1154.5 966.14 1154.51 966.66 1154.51 967.16C1154.51 987.61 1154.86 1025.15 1155.03 1042.62C1155.03 1043.47 1155.41 1044.28 1156.05 1044.84L1161.15 1049.33C1161.91 1050 1162.96 1050.25 1163.93 1049.97C1179.35 1045.56 1199.24 1035.68 1218.4 1023.71C1218.8 1023.46 1219.28 1023.36 1219.75 1023.44C1222.72 1023.94 1226.35 1024.67 1229.45 1025.23C1230.38 1025.4 1231.28 1024.88 1231.6 1023.99C1232.92 1020.32 1235.14 1014.47 1239.27 1009.63C1248.06 1003.22 1256.21 996.6 1263.1 990.18H1263.09ZM155.45 1083.74C166.26 1084.02 173.89 1085.96 173.94 1088.22C174.03 1092.63 174.03 1097.29 174.03 1101.23C174.03 1112.29 173.25 1120.38 173.04 1137.9C173.04 1138.72 173.27 1139.54 173.72 1140.23C177.87 1146.58 182.94 1153.05 188.5 1159.8C191.25 1163.14 193.13 1167.11 193.94 1171.36C199.97 1202.76 209.38 1235.67 215.81 1252.33C216.74 1254.74 217.54 1257.09 218.6 1257.09C219.66 1257.09 221.22 1254.11 222.67 1251.5C227.5 1242.79 232.6 1233.5 236.79 1225.82C237.01 1225.41 237.35 1225 237.88 1225C238.41 1225 238.68 1225.28 238.96 1225.65C251.02 1241.14 260.61 1251.21 264.21 1255.34C274.56 1267.23 280.63 1274.37 286.13 1281.41C287.98 1283.78 289.42 1284.72 291.74 1284.72C293.2 1284.72 298.32 1283.19 301.98 1281.07C313.91 1274.17 329.5 1263.15 332.63 1260.67C352.23 1245.11 368.28 1227.96 380.33 1212.08C380.52 1211.83 380.85 1211.49 381.2 1211.49C381.78 1211.49 381.95 1211.92 382.09 1212.42C384.01 1219.33 386.25 1226.56 387.89 1231.2C388.96 1234.22 389.59 1235.74 389.94 1235.74C390.29 1235.74 390.67 1233.83 391.92 1230.16C397.29 1214.5 402.24 1187.92 402.24 1171.96C402.24 1170.72 397.36 1164.97 394.47 1161C393.25 1159.33 392.43 1158.22 392.43 1157.5C392.43 1155.21 408.25 1153.22 411.31 1136.56C415.91 1109.8 420.42 1076.51 420.42 1065.96C420.42 1055.41 420.61 1006.87 420.73 968.88C420.73 968.52 420.93 968.19 421.25 968.01C422.97 967.05 424.9 965.72 425.68 964.22C426.49 962.68 430.05 959.34 433.37 955.71C433.71 955.34 433.7 954.77 433.36 954.41C430.45 951.31 425.55 946.86 421.18 943.47C420.94 943.28 420.8 942.99 420.8 942.68C420.81 936.79 420.82 931.77 420.82 927.99C420.82 900.32 420.22 817.28 420.22 802.6C419.78 796.94 417.52 788.57 416.56 768.31C416.56 768.31 416.13 763.54 415.15 762.33C413.4 760.17 409.36 758.55 407.95 757.57C406.59 756.62 402.61 751.34 396.31 745.81C395.93 745.48 395.84 744.91 396.13 744.49C401.84 736.06 410.29 727.66 410.29 721.63C412.36 664.87 420.44 628.38 421.39 616.43C422.89 611.15 428.85 590.88 437.66 573.49C438.56 571.68 437.69 570.06 437.32 568.66C436.95 567.25 434.28 560.94 433.76 559.41C433.3 558.07 432.51 556.35 430.77 555.12C402.66 540.45 340.94 509.97 324.08 501.51C321.51 500.22 319.61 499.62 318.46 499.62C316.75 499.62 315.24 500.87 315.24 502.94C315.24 504.19 320.02 540.37 324.25 585.93C329.59 643.53 334.44 730.46 334.44 749.38C334.44 753.9 332.75 767.45 332.75 769.71C332.75 771.97 320.96 783.55 314.61 790.26C314.53 790.34 314.54 790.46 314.63 790.53C318.98 794.15 328.61 800.2 331.66 804.46C332.75 807.78 336.2 821.81 337.07 827.26C337.14 829.55 337.57 838.99 338.07 851.63C338.07 851.87 338.17 852.11 338.34 852.29C341.58 855.82 345.95 858.23 348.32 859.34C348.69 859.51 348.88 859.94 348.75 860.33C347.26 865.1 344.93 867.93 344.3 871.69C343.39 877.1 341.26 879.98 339.36 885.56C339.28 885.79 339.25 886.03 339.25 886.27C339.55 897.33 339.76 908.42 339.76 918.03C339.76 953.09 336.7 1022.29 336.7 1027.37C336.7 1030.03 333.59 1059.68 330.1 1089.24C330.02 1089.88 330.06 1090.53 330.24 1091.15C331.31 1094.74 334.99 1099.73 337.64 1104.13C337.78 1104.36 337.68 1104.65 337.44 1104.76C334.39 1106.14 330.99 1107.39 328.09 1109.05C327.82 1109.2 327.65 1109.47 327.6 1109.78C327.03 1114.03 322.87 1145.03 321.65 1149.35C320.53 1153.31 310.97 1187.87 309.28 1190.69C308.08 1192.68 302.47 1204.11 298.68 1209.39C297.61 1210.87 296.51 1212.27 295.68 1212.27C294.85 1212.27 293.64 1211.79 291.09 1210.01C280.61 1202.66 257.23 1179.48 241.05 1139.26C231.55 1115.62 220.28 1066.83 212.56 1019.19C212.51 1018.86 212.62 1018.53 212.87 1018.31C217.7 1013.92 222.92 1007.82 225.35 1003.34C225.62 1002.85 225.39 1002.24 224.87 1002.04C220.17 1000.29 215.18 997.99 210.03 997.26C209.57 997.19 209.2 996.84 209.14 996.37C206.32 975.9 204.34 956.47 203.67 940.3C203.65 939.72 203.44 939.17 203.08 938.72C198.88 933.56 193.19 927.6 189.6 921.47C189.19 920.77 189.12 919.92 189.38 919.15C191.45 913.02 196.8 898.39 200.49 887.65C200.73 886.96 200.82 886.25 200.79 885.53C200.11 872.6 199.45 858.58 198.98 843.5C197.51 796.4 196.86 740.25 196.86 738.26C196.86 736.71 196.27 727.98 195.63 718.09C195.59 717.41 195.88 716.75 196.42 716.33C201.1 712.75 206.98 708.53 209.34 706.02C209.85 705.48 209.87 704.62 209.37 704.07C204.72 698.97 197.56 691.33 194.29 684.14C194.14 683.81 194.07 683.46 194.07 683.09C194.17 675.83 194.46 666.33 194.95 655.3C194.97 654.82 194.85 654.35 194.58 653.95C191.34 649.22 185.03 642.17 182.53 637.6C182.39 637.34 182.4 637.04 182.53 636.79C186.34 630.14 190.52 619.48 191.35 618.1C191.93 617.14 194.41 615.92 196.51 614.44C196.97 614.11 197.27 613.61 197.31 613.04C199.38 582 202.4 547.17 206.3 517.06C209.32 504.21 222.94 465.24 222.94 460.04C222.94 454.84 215.47 438.25 213.21 435.99C212.92 435.7 210.98 434.36 207.59 432.3C191.72 422.67 117.38 374.71 107.09 368.46C104.58 366.93 103.22 366.74 102.43 366.74C101.28 366.74 100.48 367.05 100.48 368.55C100.48 373.82 114.99 475.09 116.6 598.98C117.02 631.27 120.02 683.04 119.94 785.14C119.91 808.58 75.8196 847.04 17.2496 873.86C11.9596 876.28 0.0595703 879.91 0.0595703 882.73C0.0595703 885.55 2.76957 888.74 14.2396 893.26C36.6496 902.08 75.7396 924.24 96.8296 944.1C112.07 958.44 119.47 964.03 120.96 971.93C121.71 980.35 122.59 988.18 122.89 991.24C123.3 995.34 129.97 1024.19 134.02 1041.6C134.51 1043.71 134.74 1045.88 134.71 1048.05C134.5 1062.74 133.99 1067.08 133.99 1070.01C133.99 1073.87 139.07 1096.83 142.51 1127.77C142.8 1130.35 143.1 1132.98 144.19 1132.98C145.28 1132.98 146.09 1129.81 146.52 1126.99C146.83 1124.96 151.82 1098.85 154.58 1084.42C154.66 1083.99 155.05 1083.69 155.49 1083.7L155.44 1083.74H155.45ZM457.45 1291.94C457.94 1291.94 459.43 1291.4 459.91 1291.22C482.36 1283.02 519.66 1259.11 521.65 1257.53C524.62 1255.15 525.16 1253.9 525.16 1251.28C525.16 1249.4 523.95 1245.76 523.2 1243.12C522.73 1241.47 517.52 1212.69 515.36 1182.27C514.53 1170.57 514.27 1158.28 514.2 1145.12C514.2 1135.29 515.43 1129.74 518.15 1124.75C521.24 1119.06 530.84 1103.75 535.45 1095.62C535.59 1095.37 535.69 1095.08 535.69 1094.84C535.69 1094.39 535.32 1094.12 534.87 1094.12C534.56 1094.12 533.94 1094.3 533.71 1094.34C528.37 1095.46 521.67 1096.99 517.85 1096.99C514.24 1096.99 513.33 1094.14 513.02 1089.29C512.95 1088.23 512.66 1080.31 512.65 1078.97C512.6 1010.3 512.17 963.96 512.48 961.13C512.9 957.22 516.44 949.88 520.34 944.69C521.79 942.76 523.32 940.67 524.66 940.67C527.36 940.67 549 953.25 551.64 954.75C554.28 956.26 560.42 962.74 561.45 965.31C562.48 967.89 567.45 996.51 567.45 999.52C567.45 1002.3 567.75 1007.38 567.79 1010.59C567.79 1011.12 568.03 1011.62 568.42 1011.98C569.89 1013.32 572.68 1015.16 573.07 1016.43C576.1 1026.47 587.64 1064.08 591.21 1078.16C591.33 1078.64 591.63 1079.37 592.16 1079.37C592.69 1079.37 592.99 1078.62 593.13 1078.14C596.79 1064.9 604.19 1037.17 606.43 1029.85C606.52 1029.55 606.86 1029.42 607.13 1029.58C614.55 1033.98 625.03 1039.43 627.58 1040.73C627.82 1040.85 627.92 1041.13 627.8 1041.37C626.82 1043.44 623.97 1048.07 621.82 1051.55C620.99 1052.9 620.73 1054.52 621.12 1056.06C623.21 1064.45 631.16 1083.87 631.83 1085.54C632.58 1087.42 661.19 1159.13 662.32 1163.27C663.45 1167.41 698.48 1234.22 699.99 1236.11C701.5 1237.99 723.59 1270.82 739.12 1290.52C740.39 1292.13 744.68 1295.11 746.24 1295.11C748.08 1295.11 750.03 1290.61 750.03 1288.63C750.03 1286.29 748.25 1072.93 747.85 1014.32C747.85 1013.8 747.7 1013.31 747.44 1012.87C739.97 1000.23 737.13 983.6 737.13 981.91C737.13 980.61 742.86 976.01 746.7 972.12C747.07 971.75 747.26 971.25 747.25 970.72C747.09 963.34 746.91 955.04 746.71 946.25C746.7 945.72 746.82 945.2 747.07 944.74C751.01 937.52 757.2 930.92 759.79 928.9C760.26 928.54 760.29 927.86 759.86 927.45C758.69 926.35 756.89 924.87 755.85 924.87C754.34 924.87 750.2 924.4 746.94 923.64C746.5 923.54 746.19 923.14 746.18 922.69C745.3 883.95 744.39 843.38 744.39 832.82C744.39 692.21 748.19 650.97 748.53 648.25C749 644.49 748 641.8 744.77 640.39C737.03 637.03 707.05 624.33 693.24 618.62C688.98 616.86 682.63 614.41 681.68 614.41C679.46 614.41 678.61 615.78 678.61 617.63C678.61 621.25 689.58 658.86 691.14 667.45C694.69 687.01 701.43 746.23 704.7 796.68C704.73 797.1 704.49 797.49 704.1 797.66C701.05 798.98 697.44 800.53 694.33 802.03C693.93 802.22 693.73 802.67 693.86 803.1C695.94 810.17 706.55 844.73 706.56 853.56C706.41 901.23 705.06 937.39 703.4 962.94C701.3 995.16 696.11 1022.69 695.73 1024.2C695.55 1024.92 694.04 1027.9 693.04 1029.18C691.97 1030.56 690.74 1031.88 689.81 1031.88C687.55 1031.88 682.64 1027.51 679.65 1023.22C656.17 989.66 631.32 950.26 615.71 922.95C615.45 922.5 615.39 921.96 615.53 921.47C618.56 910.75 622.99 904.16 625.92 899.36C626.14 899 626.43 898.57 626.43 898.21C626.43 897.54 625.97 897.39 624.91 897.39C624.03 897.39 616.71 897.49 613.49 897.49C608.77 897.49 605.47 897.31 602.98 897.01C602.31 896.93 601.74 896.52 601.45 895.91C592.8 877.79 584.56 857.24 576.85 836.46C576.85 836.46 573.18 830.28 571.21 828.04C570.06 826.74 561.26 818.83 557.26 814.53C556.68 813.91 556.39 813.07 556.47 812.22C556.93 807.36 558.21 798.38 558.5 793.79C558.77 789.5 559.06 786.67 558.48 784.44C556.33 778.16 554.25 772.06 552.24 766.19C551.87 765.12 551.82 763.98 552.1 762.88C555.69 748.54 561.81 723.37 562.98 713.52C563.05 712.9 562.5 712.39 561.88 712.5C556.66 713.48 546.47 719.77 537.9 721.16C536.98 721.31 536.09 720.78 535.77 719.9C519.65 675.6 489.65 592.71 489 590.75C488.28 588.6 481.88 576.64 479.06 572.09C478.84 571.74 478.36 571.69 478.06 571.98C475.35 574.64 468.71 583.17 468.71 585.95C468.71 587.27 469.4 640.96 470.17 703.35C470.17 707.48 463.22 720.5 460.66 725.75C460.39 726.3 460.4 726.93 460.66 727.48C463.28 732.74 470.7 746.1 470.7 747.54C471.25 793.32 471.78 838.38 472.06 866.82C472.06 867.11 472.13 867.37 472.27 867.63C474.38 871.52 478.07 878.15 480.08 882.18C480.27 882.57 480.19 883.03 479.87 883.33C477.95 885.12 475.71 886.91 472.87 888.39C472.49 888.59 472.25 888.98 472.25 889.41C472.26 891.32 472.27 892.9 472.27 894.09C472.27 924.58 475.26 1109.43 475.26 1123.74C475.26 1145.23 474.7 1166.16 473.93 1184.3C473.88 1191.96 467.79 1201.32 464.86 1205.95C464.59 1206.38 464.72 1206.94 465.16 1207.21C467.07 1208.37 469.8 1209.66 471.93 1210.87C472.3 1211.08 472.51 1211.49 472.48 1211.92C471.54 1226.75 470.58 1237.22 469.98 1240.82C468.57 1249.3 462.09 1274.37 456.72 1289.61C456.53 1290.15 456.46 1290.4 456.46 1290.8C456.46 1291.36 456.62 1291.89 457.49 1291.89L457.45 1291.94ZM788.91 788.82C789.16 793.75 793.92 943.69 795.14 1041.31C795.14 1041.59 794.92 1041.81 794.64 1041.81H784.4C782 1041.81 781.78 1043.42 782.62 1044.83C783.22 1045.83 790.84 1059.15 795.19 1066.76C795.32 1066.98 795.38 1067.23 795.38 1067.49C795.4 1071.93 795.42 1076.17 795.42 1080.2C795.42 1088.77 795.38 1096.61 795.32 1103.87C795.32 1104.35 795.51 1104.81 795.85 1105.15C799.49 1108.66 803.94 1112.22 803.94 1113.16C803.94 1114.1 798.72 1122.8 795.42 1129.24C795.11 1129.85 794.95 1130.53 794.93 1131.21C794.5 1153.68 793.94 1170.1 793.94 1187.55C793.94 1197.95 789.95 1245.01 787.32 1258.94C784.69 1272.87 779.34 1291.85 779.34 1294.26C779.34 1296.67 781.6 1297.73 787.89 1297.73C790.36 1297.73 794.28 1295.61 800.5 1293.21C822.99 1284.56 870.68 1265.13 872.6 1264.41C875.88 1263.17 876.21 1262.44 876.21 1260.71C876.21 1257.95 870.15 1242 869.2 1225.25C868.98 1221.42 868.8 1216.98 868.64 1212.12C868.63 1211.66 868.44 1211.22 868.14 1210.87C864.25 1206.31 860.62 1197.37 859.28 1195.66C858.24 1194.34 854.84 1191.8 851.06 1188.86C849.73 1187.83 848.98 1187.24 848.98 1186.28C848.98 1185.26 849.59 1184.71 850.67 1183.48C852.5 1181.4 854.88 1179.02 855.5 1177.69C856.49 1175.57 857.62 1169.16 859.03 1166.2C860.03 1164.11 864.03 1160.09 867.47 1155.78C867.62 1155.36 867.75 1154.97 867.9 1154.54C867.95 1138.79 870.35 1065.82 871.57 1035.95C871.59 1035.39 872.06 1034.97 872.62 1035C879.21 1035.42 887.34 1036.05 896.23 1036.84C896.67 1036.88 897.04 1037.21 897.13 1037.64C899.08 1046.71 902.24 1053.85 902.98 1056.22C904.1 1059.84 904.08 1066.82 908.58 1077.43C908.78 1077.89 909.28 1078.66 910 1078.66C910.37 1078.66 910.82 1078.16 910.9 1077.66C912.21 1069.78 912.96 1064.28 914.29 1059.04C915.74 1053.32 917.55 1047.86 918.46 1039.85C918.49 1039.56 918.5 1039.47 918.59 1039.47C918.68 1039.47 918.72 1039.54 918.84 1039.83C919.19 1040.69 919.69 1041.56 919.94 1042.43C921.45 1047.5 922.7 1052.24 926.02 1056.22C926.27 1056.52 926.62 1056.67 926.95 1056.67C927.31 1056.67 927.64 1056.47 927.8 1056.08C930.21 1050.29 932.8 1045.4 935.22 1041.39C935.42 1041.05 935.81 1040.87 936.2 1040.92C953.94 1042.99 970.56 1045.34 981.06 1047.65C981.8 1047.81 982.38 1048.39 982.56 1049.13C986.01 1063.32 992.25 1089.7 995.09 1097.43C996.08 1100.12 997.75 1102.3 999.07 1102.3C1000.09 1102.3 1000.26 1101.27 1000.26 1099.91C1000.26 1091.41 1003.31 1068.79 1008.65 1045.13C1013.92 1021.79 1025.2 997.13 1026.52 994.68C1027.84 992.23 1030.12 987.88 1030.12 986.56C1030.12 985.24 1029.37 984.4 1028.24 984.4C1025.72 984.4 1020.51 989.66 1005.17 989.66C997.4 989.66 990.66 989.49 982.49 989.03C982.18 989.01 981.87 989.14 981.67 989.38C979.76 991.68 977.83 994.07 976.4 995.62C975.93 996.12 975.18 996.2 974.62 995.8C972.04 993.94 967.16 990.59 963.67 988.19C963.1 987.8 962.46 987.57 961.77 987.51C956.41 987.06 950.36 986.53 943.36 985.9C943.09 985.88 942.84 985.76 942.66 985.56C939.2 981.7 934.25 975.49 931.37 971.65C930.97 971.12 930.18 971.14 929.8 971.68C927.22 975.41 923.95 980 920.2 983.48C920 983.67 919.73 983.75 919.46 983.73C907.46 982.63 893.39 981.33 876.69 979.81C871.22 979.31 870.09 976.22 870.09 972.46C870.09 970.25 869.83 938.38 869.62 909.93C869.62 909.62 869.76 909.34 870 909.15C873.21 906.73 877.05 903.8 877.55 903.33C878.42 902.51 880.79 901.66 880.79 900.99C880.79 900.32 879.06 899.46 877.74 898.53C876.76 897.83 873.18 894.54 869.79 891.15C869.59 890.95 869.48 890.68 869.48 890.4C869.4 878.94 869.34 869.89 869.34 866.47V861.56C869.34 860.52 869.02 859.49 868.43 858.62C865.77 854.73 865.22 851.08 862.6 847.73C859.99 844.39 858.75 837.93 857.06 835.11C855.56 832.61 854.74 831.13 854.57 827.75C854.55 827.32 854.52 825.15 854.52 824.64C854.52 822.29 856.18 820.65 858.01 819.8C859.51 819.11 863.56 817.15 868.68 813.47C869.22 813.08 869.54 812.45 869.54 811.79C869.61 795.55 869.68 781.98 869.68 781.33C869.68 780.58 871.75 779.2 873.88 777.77C876.01 776.34 877.91 774.79 878.76 774.79C880.24 774.79 888.36 777.06 900.29 780.27C901 780.46 901.55 781.03 901.73 781.75C904.27 792.04 907.4 794.2 908.7 798.18C911.49 806.69 913.52 809.45 914.31 812.95C916.06 820.71 917.45 824.54 918.73 827.65C919.57 829.7 921.46 834.31 922.79 838.35C922.95 838.84 923.51 839.84 924.09 839.84C924.67 839.84 925.01 839.05 925.11 838.55C925.77 835.45 926.45 832.68 926.79 831.33C927.35 829.07 930.04 821.73 930.04 817.07C930.04 812.41 930.75 804.79 931.31 801.54C931.87 798.29 932.38 794.76 932.38 793.35C932.38 790.81 932.5 789.86 933.49 789.86C934.04 789.86 934.72 790.05 934.94 790.11C936.01 790.43 937.04 791.94 937.47 795.04C937.89 798.15 941.19 809.44 941.47 811.28C941.61 812.17 942.35 814.08 943 816.12C943.23 816.85 943.83 818.17 944.46 818.17C945.23 818.17 945.56 817.24 945.75 816.49C946.37 814.05 947.26 812.37 947.66 810.98C950.62 800.67 955.17 801.53 955.17 797.97C955.17 797.6 955.09 796.71 955.35 796.45C955.61 796.19 956.06 796.3 956.49 796.44C967.55 800.03 976.89 805.09 984.76 811C986.01 811.94 986.94 813.24 987.35 814.75C991.58 830.28 993.26 847.09 994.78 861.96C995.07 864.79 995.35 866.69 996.1 870.19C996.25 870.87 996.83 873.01 997.56 873.01C998.29 873.01 998.43 872.23 998.59 871.55C1000.48 863.51 1001.79 859.61 1002.66 856.75C1003.47 854.09 1006.58 845.84 1007.94 837.66C1008.02 837.21 1008.61 837.08 1008.85 837.47C1020.29 856.09 1038.77 901.02 1043.82 916.35C1048.9 931.79 1051.66 939.8 1053.26 944.96C1054.17 947.89 1055.48 952.44 1056.83 952.44C1058.18 952.44 1058.74 950.53 1059.19 947.74C1060.18 941.54 1063.42 923.4 1063.42 920.55C1063.42 918.52 1055.77 872.72 1050.54 841.15C1050.42 840.45 1050.06 839.83 1049.52 839.37C1047.67 837.84 1043.25 834.19 1040.93 832.27C1040.11 831.59 1039.99 830.38 1040.67 829.55C1042.09 827.83 1044.51 824.92 1046.71 822.32C1047.11 821.85 1047.27 821.23 1047.18 820.63C1046.7 817.68 1046.33 815.33 1046.09 813.77C1042.14 787.98 1039.14 745.01 1039.14 743.88C1039.14 743.12 1038.57 741.47 1038.15 740.29C1037.89 739.57 1037.15 739.41 1036.65 739.99C1035.98 740.76 1035.41 741.55 1034.69 742.43C1033.25 744.18 1016.92 762.95 1015.98 763.7C1015.04 764.45 1014.1 766.15 1011.09 765.58C1008.66 765.12 967.4 756.24 946.6 751.72C945.81 751.55 945.12 751.06 944.7 750.38L925.16 718.97C924.74 718.3 923.95 717.33 923.23 717.33C922.34 717.33 921.9 718.84 921.68 719.6C920.05 725.46 917.2 734.1 916.5 736.01C915.71 738.14 912.87 739.93 908.7 741.14C908.21 741.28 907.69 741.27 907.21 741.12C899.03 738.58 889.86 735.67 880.35 732.59C879.69 732.38 878.98 732.4 878.34 732.66C875.46 733.82 871.94 735.08 869.27 735.53C866.34 736.02 863.19 737.53 858.33 737.53C855.83 737.53 854 736.57 852.79 734.8C851.68 733.17 851.16 730.78 849.75 729.18C848.36 727.59 846.38 724.62 844.06 721.36C843.67 720.81 843.11 720.4 842.47 720.19C814.91 711.04 791.86 703.18 790.32 702.52C786.74 701.01 782.77 699.57 781.07 699.57C778.01 699.57 776.98 701.73 776.98 703.72C776.98 705.98 779.65 712.59 780.5 717.67C781.35 722.75 788.61 783.19 788.89 788.84L788.91 788.82Z" fill="url(#paint0_linear_173_3021)"/>
<path d="M1322.76 572.25H1214.24L1214.23 572.26C1200.99 561.75 1172.65 536.58 1172.65 505.23C1172.65 503.26 1172.77 500.6 1172.9 498.53C1172.93 497.99 1173.22 497.45 1173.73 497.45C1173.98 497.45 1174.33 497.65 1174.55 497.84L1174.62 497.902C1177.39 500.314 1181.69 504.05 1189.39 504.05C1203.39 504.05 1207.6 488.2 1207.6 481.71C1207.6 469.15 1201.05 458.23 1194.5 453.51C1194.06 453.2 1193.93 452.62 1194.21 452.16C1213.14 421.67 1237.68 388.68 1237.68 362.76C1237.68 349.68 1227.53 331.28 1221.95 322.93C1219.81 319.72 1217.16 316.49 1214.93 313.38C1213.41 311.27 1212.85 309.36 1212.85 308.75C1212.85 308.25 1212.96 307.52 1214.02 307.52C1214.67 307.52 1215.38 307.96 1215.84 308.18C1223.46 311.78 1232.93 314.8 1243.79 320.2C1262.77 329.65 1277.98 341.74 1277.98 367.1C1277.98 375.03 1276.31 382.69 1273.56 388.97C1273.46 389.2 1273.15 389.21 1273.02 389C1270.71 385.31 1268.75 383.65 1264.61 383.65C1254.78 383.65 1240.22 406.53 1240.22 428.59C1240.22 461.29 1265.79 492.27 1297.71 492.27C1338.07 492.27 1354.65 459.03 1354.65 441.81C1354.65 431.37 1350.51 425.34 1350.51 417.37C1350.51 416.63 1350.74 416.27 1351.48 416.27C1352.56 416.27 1355.78 418.83 1364.5 418.83C1374.74 418.83 1387.39 408.1 1387.39 386.36C1387.39 352.2 1348.09 321.22 1332.23 321.22C1324.79 321.22 1321.47 326.86 1321.47 335.08C1321.47 341.8 1321.99 345.52 1321.99 346.27C1321.99 346.95 1321.96 347.5 1321.48 347.5C1321 347.5 1320.73 347.02 1320.51 346.71C1315.2 339.16 1307.5 327.57 1306.27 321.42C1305.72 314.76 1305.88 311.12 1305.88 305.35C1305.88 293.48 1306.88 275.37 1309.12 261.09C1313.96 230.24 1319.4 216.65 1333.11 208.28C1364.03 189.39 1435.42 156.36 1435.42 106.12C1435.42 89.26 1426.62 77.76 1421.43 71.02C1421.23 70.77 1421.13 70.5 1421.13 70.24C1421.13 69.85 1421.5 69.37 1421.99 69.37C1422.14 69.37 1422.4 69.4 1422.56 69.47L1422.81 69.5809C1435.9 75.3437 1481.96 95.6176 1481.49 133.57C1481.12 163.62 1451.51 178.5 1438.61 185.4C1438.12 185.66 1437.57 185.44 1437.36 184.92C1435.76 180.87 1433.22 178.32 1429.88 178.32C1417.12 178.32 1387.26 219.73 1387.26 259.4C1387.26 287.49 1415.58 303.51 1434.46 312.15C1466.44 326.79 1468.97 342.75 1472.47 353.29C1481.01 378.97 1480.94 413 1502.96 413C1521.6 413 1543.08 383.67 1543.08 352.74C1543.08 328.14 1531.01 315.14 1522.6 315.14C1516.98 315.14 1514.72 321.81 1514.54 329.17C1514.54 329.46 1514.16 329.58 1514 329.33C1507.81 319.98 1496.63 309.32 1496.63 294.12C1496.63 259.28 1542.97 232.95 1569.91 231.42C1570.51 231.39 1571.2 231.48 1571.2 232.1C1571.2 232.48 1570.95 232.78 1570.76 232.99C1565.87 238.49 1555.49 251.82 1555.49 272.49C1555.49 313.84 1615.75 331.92 1626.12 406.51C1626.15 406.68 1626.02 406.84 1625.85 406.86C1613.07 408.19 1600.08 416.48 1600.08 444.12C1600.08 462.84 1610.49 479.64 1629.17 479.64C1632.74 479.64 1638.4 478.63 1641.38 476.28C1641.58 476.13 1641.87 476.28 1641.87 476.53C1641.59 491.69 1631.99 516.78 1623.21 533.83C1615.34 549.12 1604.76 565.89 1595.98 572.25H1499.68C1484.44 538.59 1450.57 515.18 1411.22 515.18C1371.87 515.18 1338 538.6 1322.76 572.25Z" fill="#2B7DF7"/>
<path d="M1395.65 127.79C1395.42 127.79 1394.99 127.61 1394.8 127.46C1359.35 99.6 1348.24 67.37 1348.24 48.62C1348.24 32.77 1376.61 7.9 1400.46 0.32C1400.93 0.17 1402.1 0 1402.53 0C1403.49 0 1403.74 0.35 1403.74 1C1403.74 1.65 1403.26 2.81 1403.11 3.21C1396.89 19.96 1388.47 51.25 1388.47 72.79C1388.47 94.33 1390.6 109.1 1396.53 125.92C1396.59 126.1 1396.76 126.54 1396.76 126.86C1396.76 127.3 1396.43 127.79 1395.65 127.79Z" fill="#2B7DF7"/>
<path d="M1151.56 638.69L1123.75 623.16H1123.76C1123.05 622.76 1122.48 622.16 1122.12 621.43L1110.98 598.79H1350.17C1356.32 570.72 1381.32 549.71 1411.23 549.71C1441.14 549.71 1466.14 570.72 1472.29 598.79H1711.48L1700.34 621.43C1699.98 622.16 1699.41 622.76 1698.7 623.16L1670.89 638.69H1151.56Z" fill="url(#paint1_linear_173_3021)"/>
<path d="M1433.04 844.62C1429.45 836.98 1427.62 829.04 1424.91 820.73V820.74H1424.88C1424.74 820.29 1424.05 820.23 1423.89 820.84C1423.66 821.01 1423.48 821.13 1423.24 821.29H1399.13C1384.96 807.74 1371.32 795.31 1358.2 783.87C1357.71 783.43 1356.92 783.62 1356.67 784.23C1354.39 789.69 1350.95 792.1 1350.07 794.03C1349.49 795.32 1347.54 798.19 1345.93 800.55L1345.84 800.682C1344.54 802.598 1343.83 803.64 1342.93 803.64C1341.61 803.64 1341.37 802.01 1339.57 793.25C1339.18 791.35 1335.15 776.14 1329.15 760.11C1328.89 759.42 1328.45 758.81 1327.88 758.35C1295.63 732.21 1266.67 711.8 1240.33 694.16C1239.83 693.82 1239.21 693.72 1238.64 693.91C1235.78 694.85 1233.3 698.05 1230.38 701.61C1229.46 702.73 1228.63 703.08 1228.26 703.08C1226.94 703.08 1224.86 700.41 1223.22 696.6C1222.41 694.72 1219.75 685.79 1216.31 679.22C1215.83 678.29 1215.11 677.49 1214.23 676.92C1205.06 670.93 1196.23 665.18 1187.69 659.51H1634.74C1632.34 661.1 1629.92 662.7 1627.47 664.31C1626.47 664.97 1625.66 665.86 1625.11 666.91C1622.45 671.96 1618.48 679.72 1616.05 685.35L1616.02 685.421C1614.52 688.926 1613.69 690.86 1612.36 690.86C1611.02 690.86 1609.71 689.3 1608.65 686.54C1608.23 685.44 1607.34 682.68 1605.09 679.99C1604.77 679.61 1604.21 679.54 1603.79 679.81C1601.22 681.49 1598.64 683.19 1596.02 684.91C1595.39 685.32 1594.95 685.95 1594.76 686.67C1592.24 696.21 1587.05 706.5 1583.91 717.79C1582.68 722.22 1580.44 730.7 1578.39 736.92C1577.53 739.55 1577.02 741.29 1576.41 741.29C1574.48 741.29 1573.28 739.57 1571.32 737.11C1569.21 734.47 1566.79 727.37 1565.28 723.23C1564.14 720.07 1561.89 715.29 1559.81 710.11C1559.69 709.81 1559.33 709.7 1559.07 709.88C1529.51 730.5 1496.8 755.18 1460.13 787.46C1456.93 797.79 1452.09 810.26 1450.63 815.65C1446.93 829.3 1441.31 850.14 1438.36 859.3C1438.2 859.79 1437.68 859.68 1437.49 859.17C1434.47 851.16 1435.19 849.21 1433.04 844.62Z" fill="url(#paint2_linear_173_3021)"/>
</g>
<defs>
<linearGradient id="paint0_linear_173_3021" x1="1393.67" y1="366.58" x2="1393.67" y2="1526.83" gradientUnits="userSpaceOnUse">
<stop offset="0.298077" stop-color="#66D1F0"/>
<stop offset="0.533654" stop-color="#89F9FB"/>
<stop offset="0.557692" stop-color="#62AED5"/>
<stop offset="0.788462" stop-color="#125D9E"/>
</linearGradient>
<linearGradient id="paint1_linear_173_3021" x1="1393.67" y1="550" x2="1393.67" y2="860" gradientUnits="userSpaceOnUse">
<stop offset="0.336538" stop-color="#66D1F0"/>
<stop offset="0.557692" stop-color="#62AED5"/>
<stop offset="1" stop-color="#125D9E"/>
</linearGradient>
<linearGradient id="paint2_linear_173_3021" x1="1393.67" y1="550" x2="1393.67" y2="860" gradientUnits="userSpaceOnUse">
<stop offset="0.336538" stop-color="#66D1F0"/>
<stop offset="0.557692" stop-color="#62AED5"/>
<stop offset="1" stop-color="#125D9E"/>
</linearGradient>
<clipPath id="clip0_173_3021">
<rect width="2787.25" height="1526.82" fill="white"/>
</clipPath>
</defs>
</svg>
