<?xml version="1.0" encoding="UTF-8" standalone="no"?>
<svg
   xmlns:dc="http://purl.org/dc/elements/1.1/"
   xmlns:cc="http://creativecommons.org/ns#"
   xmlns:rdf="http://www.w3.org/1999/02/22-rdf-syntax-ns#"
   xmlns:svg="http://www.w3.org/2000/svg"
   xmlns="http://www.w3.org/2000/svg"
   viewBox="0 0 1168 1365.3333"
   height="1365.3333"
   width="1168"
   xml:space="preserve"
   id="svg2"
   version="1.1"><metadata
     id="metadata8"><rdf:RDF><cc:Work
         rdf:about=""><dc:format>image/svg+xml</dc:format><dc:type
           rdf:resource="http://purl.org/dc/dcmitype/StillImage" /></cc:Work></rdf:RDF></metadata><defs
     id="defs6"><clipPath
       id="clipPath18"
       clipPathUnits="userSpaceOnUse"><path
         id="path16"
         d="M 0,1024 H 876 V 0 H 0 Z" /></clipPath></defs><g
     transform="matrix(1.3333333,0,0,-1.3333333,0,1365.3333)"
     id="g10"><g
       id="g12"><g
         clip-path="url(#clipPath18)"
         id="g14"><g
           transform="translate(803.6622,91.7135)"
           id="g20"><path
             id="path22"
             style="fill:#ffffff;fill-opacity:1;fill-rule:evenodd;stroke:none"
             d="m 0,0 c -0.746,8.608 -11.248,16.218 -27.906,21.7 -7.733,2.762 -14.74,8.844 -18.055,16.371 -1.38,3.135 -2.028,6.205 -2.086,9.166 -0.119,6.089 1.424,12.609 5.173,17.681 10.753,14.544 33.399,11.715 40.202,10.426 4.01,-0.76 7.931,-2.003 11.757,-3.727 L 5.612,60.701 c -15.107,6.888 -28.384,5.948 -35.24,-0.693 -3.147,-3.048 -3.701,-5.789 -4.308,-7.826 -2.865,-9.627 6.237,-17.703 24.041,-23.956 C 2.931,23.722 12.987,13.424 13.361,0 13.729,-14.048 4.286,-27.184 -9.858,-29.941 c -15.201,-2.964 -28.489,-1.025 -40.111,5.181 1.116,3.828 2.172,7.598 3.207,11.448 C -19.33,-27.63 1.532,-17.677 0,0 m -108.221,75.078 h 43.288 V 63.63 h -43.288 V 30.617 H -67.07 V 19.435 h -41.151 V -18.37 h 45.693 v -11.448 h -45.693 -0.535 -13.093 V 75.078 h 13.093 z m -117.04,0 28.859,-86.26 29.928,85.993 h 17.369 l 6.681,-104.629 h -13.628 l -4.009,91.584 -32.332,-91.051 h -10.154 l -29.661,90.785 -4.81,-91.318 h -13.093 l 7.214,104.896 z m -65.475,-61.234 -15.891,49.905 -15.891,-49.905 z m -19.498,61.234 h 7.214 4.543 l 35.807,-104.896 h -14.163 l -10.512,33.013 h -38.564 l -10.512,-33.013 h -14.162 l 35.806,104.896 z M -433.42,62.032 c 16.278,15.145 42.719,18.292 67.067,9.299 -1.154,-3.619 -2.312,-7.258 -3.47,-10.896 -17.164,6.698 -38.28,6.171 -51.305,-4.526 -13.371,-10.982 -14.56,-28.089 -14.162,-35.675 0.469,-8.952 3.165,-23.876 15.892,-32.749 11.104,-7.743 27.998,-9.089 42.895,-4.34 v 31.232 h -21.644 v 10.915 h 21.644 13.36 V 14.377 -25.292 h -1.304 c -27.569,-9.5 -56.352,-6.7 -71.912,9.851 -8.226,8.75 -12.492,20.376 -13.361,32.746 -1.051,16.392 3.998,33.28 16.3,44.727 m -86.852,-48.188 -15.891,49.905 -15.891,-49.905 z m -19.498,61.234 h 7.214 4.543 l 35.807,-104.896 h -14.163 l -10.512,33.013 h -38.564 l -10.512,-33.013 h -14.163 l 35.807,104.896 z m -95.93,0 h 43.289 V 63.63 H -635.7 V 30.617 h 41.151 V 19.435 H -635.7 V -18.37 h 45.694 v -11.448 h -45.694 -0.534 -13.094 V 75.078 h 13.094 z m -69.475,-90.786 30.195,90.786 h 14.429 l -37.677,-104.896 h -14.964 l -34.47,104.896 h 14.964 z m 216.513,223.994 121,292 122,-292 h 122 l -244,565 -243,-565 z m -259,656 h 760 v -759 h -760 z" /></g></g></g></g></svg>