<svg width="1745" height="1272" viewBox="0 0 1745 1272" fill="none" xmlns="http://www.w3.org/2000/svg">
<g clip-path="url(#clip0_10413_14464)">
<path d="M326.3 215.8V1164.2H488.2V1272H1602.4V1164.2H1745V215.8H326.3Z" fill="#F08300"/>
<path d="M1602.4 107.8H164.3V1056.2H326.3V1164.2H1440.4V1056.2H1602.4V107.8Z" fill="#F6A000"/>
<path d="M0.5 0V948.3H162.4V1056.2H1276.6V948.3H1438.5V0H0.5Z" fill="#FEC82F"/>
<path d="M326.9 669.3H267.1L228.4 552.3L189.3 669.3H129.5L60.2998 453H127.8L163 569.1L203.9 453H252.5L293.3 569.5L328.6 453H396.1L326.9 669.3Z" fill="#FFFFFC"/>
<mask id="mask0_10413_14464" style="mask-type:luminance" maskUnits="userSpaceOnUse" x="0" y="0" width="1745" height="1272">
<path d="M1745 0H0V1272H1745V0Z" fill="white"/>
</mask>
<g mask="url(#mask0_10413_14464)">
<path d="M630.8 578.5H472.6C478.2 604.3 495.8 620.2 519 620.2C534.9 620.2 553.4 616.3 565 595.3L626.1 607.8C607.6 653.4 568.5 675.3 519 675.3C456.7 675.3 405.1 629.3 405.1 560.9C405.1 493 456.7 446.5 519.5 446.5C580.6 446.5 629.6 490.4 630.9 560.9V578.5H630.8ZM473.9 536.4H562.9C556.4 513.2 539.3 502.4 519.5 502.4C500.1 502.4 480.3 514.5 473.9 536.4Z" fill="#FFFFFC"/>
</g>
<mask id="mask1_10413_14464" style="mask-type:luminance" maskUnits="userSpaceOnUse" x="0" y="0" width="1745" height="1272">
<path d="M1745 0H0V1272H1745V0Z" fill="white"/>
</mask>
<g mask="url(#mask1_10413_14464)">
<path d="M862.6 532.1V668.8H796.4V652.9C781.4 665.8 760.7 675.3 731.9 675.3C683.7 675.3 651.5 647.3 651.5 604.8C651.5 562.7 683.7 535.1 741.4 535.1H796.4V530.8C796.4 512.7 783.9 500.7 765.9 500.7C745.3 500.7 733.2 508.9 729.8 527.8L664.9 514.5C674.4 472.8 712.2 446.6 763.8 446.6C824.3 446.5 862.6 477.1 862.6 532.1ZM796.3 583.7V579H749C731.8 579 721 588 721 601.4C721 615.2 733 623.8 751.1 623.8C774.8 623.7 796.3 607.8 796.3 583.7Z" fill="#FFFFFC"/>
</g>
<mask id="mask2_10413_14464" style="mask-type:luminance" maskUnits="userSpaceOnUse" x="0" y="0" width="1745" height="1272">
<path d="M1745 0H0V1272H1745V0Z" fill="white"/>
</mask>
<g mask="url(#mask2_10413_14464)">
<path d="M1146.8 560.9C1146.8 629.3 1098.6 675.3 1041.4 675.3C1013.5 675.3 991.1 666.7 974.3 651.7V772H905.5V453H974.3V470.2C991.1 455.2 1013.4 446.6 1041.4 446.6C1098.6 446.5 1146.8 493 1146.8 560.9ZM1079.2 560.9C1079.2 527.8 1057.3 505 1027.2 505C999.2 505 974.3 527.8 974.3 560.9C974.3 594.4 999.2 616.8 1027.2 616.8C1057.3 616.8 1079.2 594.4 1079.2 560.9Z" fill="#FFFFFC"/>
</g>
<mask id="mask3_10413_14464" style="mask-type:luminance" maskUnits="userSpaceOnUse" x="0" y="0" width="1745" height="1272">
<path d="M1745 0H0V1272H1745V0Z" fill="white"/>
</mask>
<g mask="url(#mask3_10413_14464)">
<path d="M1423.6 560.9C1423.6 629.3 1375.4 675.3 1318.2 675.3C1290.3 675.3 1267.9 666.7 1251.1 651.7V772H1182.3V453H1251.1V470.2C1267.9 455.2 1290.2 446.6 1318.2 446.6C1375.5 446.5 1423.6 493 1423.6 560.9ZM1356.1 560.9C1356.1 527.8 1334.2 505 1304.1 505C1276.1 505 1251.2 527.8 1251.2 560.9C1251.2 594.4 1276.1 616.8 1304.1 616.8C1334.2 616.8 1356.1 594.4 1356.1 560.9Z" fill="#FFFFFC"/>
</g>
<mask id="mask4_10413_14464" style="mask-type:luminance" maskUnits="userSpaceOnUse" x="0" y="0" width="1745" height="1272">
<path d="M1745 0H0V1272H1745V0Z" fill="white"/>
</mask>
<g mask="url(#mask4_10413_14464)">
<path d="M1545.3 772H1471.3L1519.1 661.5L1429.6 452.6H1503.6L1554.7 578.5L1609.4 452.6H1683.3L1545.3 772Z" fill="#FFFFFC"/>
</g>
</g>
<defs>
<clipPath id="clip0_10413_14464">
<rect width="1745" height="1272" fill="white"/>
</clipPath>
</defs>
</svg>
